<?xml version="1.0" encoding="utf-8" standalone="no"?>
<!DOCTYPE svg PUBLIC "-//W3C//DTD SVG 1.1//EN"
  "http://www.w3.org/Graphics/SVG/1.1/DTD/svg11.dtd">
<svg xmlns:xlink="http://www.w3.org/1999/xlink" width="460.8pt" height="345.6pt" viewBox="0 0 460.8 345.6" xmlns="http://www.w3.org/2000/svg" version="1.1">
 <metadata>
  <rdf:RDF xmlns:dc="http://purl.org/dc/elements/1.1/" xmlns:cc="http://creativecommons.org/ns#" xmlns:rdf="http://www.w3.org/1999/02/22-rdf-syntax-ns#">
   <cc:Work>
    <dc:type rdf:resource="http://purl.org/dc/dcmitype/StillImage"/>
    <dc:date>2023-12-17T21:01:08.103408</dc:date>
    <dc:format>image/svg+xml</dc:format>
    <dc:creator>
     <cc:Agent>
      <dc:title>Matplotlib v3.5.3, https://matplotlib.org/</dc:title>
     </cc:Agent>
    </dc:creator>
   </cc:Work>
  </rdf:RDF>
 </metadata>
 <defs>
  <style type="text/css">*{stroke-linejoin: round; stroke-linecap: butt}</style>
 </defs>
 <g id="figure_1">
  <g id="patch_1">
   <path d="M 0 345.6 
L 460.8 345.6 
L 460.8 0 
L 0 0 
z
" style="fill: #ffffff"/>
  </g>
  <g id="axes_1">
   <g id="patch_2">
    <path d="M 57.6 307.584 
L 414.72 307.584 
L 414.72 41.472 
L 57.6 41.472 
z
" style="fill: #ffffff"/>
   </g>
   <g id="patch_3">
    <path d="M 59.700706 307.584 
L 76.506353 307.584 
L 76.506353 288.254115 
L 59.700706 288.254115 
z
" clip-path="url(#pfecfe5be59)" style="fill: #ea96a3"/>
   </g>
   <g id="patch_4">
    <path d="M 80.707765 307.584 
L 97.513412 307.584 
L 97.513412 220.615746 
L 80.707765 220.615746 
z
" clip-path="url(#pfecfe5be59)" style="fill: #e6957a"/>
   </g>
   <g id="patch_5">
    <path d="M 101.714824 307.584 
L 118.520471 307.584 
L 118.520471 181.748817 
L 101.714824 181.748817 
z
" clip-path="url(#pfecfe5be59)" style="fill: #ce974c"/>
   </g>
   <g id="patch_6">
    <path d="M 122.721882 307.584 
L 139.527529 307.584 
L 139.527529 159.203293 
L 122.721882 159.203293 
z
" clip-path="url(#pfecfe5be59)" style="fill: #b59c49"/>
   </g>
   <g id="patch_7">
    <path d="M 143.728941 307.584 
L 160.534588 307.584 
L 160.534588 132.579204 
L 143.728941 132.579204 
z
" clip-path="url(#pfecfe5be59)" style="fill: #9da045"/>
   </g>
   <g id="patch_8">
    <path d="M 164.736 307.584 
L 181.541647 307.584 
L 181.541647 253.265346 
L 164.736 253.265346 
z
" clip-path="url(#pfecfe5be59)" style="fill: #83a846"/>
   </g>
   <g id="patch_9">
    <path d="M 185.743059 307.584 
L 202.548706 307.584 
L 202.548706 266.040401 
L 185.743059 266.040401 
z
" clip-path="url(#pfecfe5be59)" style="fill: #48b058"/>
   </g>
   <g id="patch_10">
    <path d="M 206.750118 307.584 
L 223.555765 307.584 
L 223.555765 271.413608 
L 206.750118 271.413608 
z
" clip-path="url(#pfecfe5be59)" style="fill: #49ae88"/>
   </g>
   <g id="patch_11">
    <path d="M 227.757176 307.584 
L 244.562824 307.584 
L 244.562824 231.210512 
L 227.757176 231.210512 
z
" clip-path="url(#pfecfe5be59)" style="fill: #4bac9c"/>
   </g>
   <g id="patch_12">
    <path d="M 248.764235 307.584 
L 265.569882 307.584 
L 265.569882 157.767695 
L 248.764235 157.767695 
z
" clip-path="url(#pfecfe5be59)" style="fill: #4cabac"/>
   </g>
   <g id="patch_13">
    <path d="M 269.771294 307.584 
L 286.576941 307.584 
L 286.576941 54.144 
L 269.771294 54.144 
z
" clip-path="url(#pfecfe5be59)" style="fill: #50acbe"/>
   </g>
   <g id="patch_14">
    <path d="M 290.778353 307.584 
L 307.584 307.584 
L 307.584 250.37399 
L 290.778353 250.37399 
z
" clip-path="url(#pfecfe5be59)" style="fill: #56acd9"/>
   </g>
   <g id="patch_15">
    <path d="M 311.785412 307.584 
L 328.591059 307.584 
L 328.591059 282.52687 
L 311.785412 282.52687 
z
" clip-path="url(#pfecfe5be59)" style="fill: #99ade9"/>
   </g>
   <g id="patch_16">
    <path d="M 332.792471 307.584 
L 349.598118 307.584 
L 349.598118 282.973213 
L 332.792471 282.973213 
z
" clip-path="url(#pfecfe5be59)" style="fill: #bda4ea"/>
   </g>
   <g id="patch_17">
    <path d="M 353.799529 307.584 
L 370.605176 307.584 
L 370.605176 257.360008 
L 353.799529 257.360008 
z
" clip-path="url(#pfecfe5be59)" style="fill: #da93e8"/>
   </g>
   <g id="patch_18">
    <path d="M 374.806588 307.584 
L 391.612235 307.584 
L 391.612235 204.333056 
L 374.806588 204.333056 
z
" clip-path="url(#pfecfe5be59)" style="fill: #e78dd4"/>
   </g>
   <g id="patch_19">
    <path d="M 395.813647 307.584 
L 412.619294 307.584 
L 412.619294 178.775162 
L 395.813647 178.775162 
z
" clip-path="url(#pfecfe5be59)" style="fill: #e992bc"/>
   </g>
   <g id="matplotlib.axis_1">
    <g id="xtick_1">
     <g id="line2d_1">
      <defs>
       <path id="ma1bceaa4ee" d="M 0 0 
L 0 3.5 
" style="stroke: #000000; stroke-width: 0.8"/>
      </defs>
      <g>
       <use xlink:href="#ma1bceaa4ee" x="68.103529" y="307.584" style="stroke: #000000; stroke-width: 0.8"/>
      </g>
     </g>
     <g id="text_1">
      <!-- back_pharmacy -->
      <g transform="translate(70.723842 393.385562)rotate(-90)scale(0.1 -0.1)">
       <defs>
        <path id="DejaVuSans-62" d="M 3116 1747 
Q 3116 2381 2855 2742 
Q 2594 3103 2138 3103 
Q 1681 3103 1420 2742 
Q 1159 2381 1159 1747 
Q 1159 1113 1420 752 
Q 1681 391 2138 391 
Q 2594 391 2855 752 
Q 3116 1113 3116 1747 
z
M 1159 2969 
Q 1341 3281 1617 3432 
Q 1894 3584 2278 3584 
Q 2916 3584 3314 3078 
Q 3713 2572 3713 1747 
Q 3713 922 3314 415 
Q 2916 -91 2278 -91 
Q 1894 -91 1617 61 
Q 1341 213 1159 525 
L 1159 0 
L 581 0 
L 581 4863 
L 1159 4863 
L 1159 2969 
z
" transform="scale(0.015625)"/>
        <path id="DejaVuSans-61" d="M 2194 1759 
Q 1497 1759 1228 1600 
Q 959 1441 959 1056 
Q 959 750 1161 570 
Q 1363 391 1709 391 
Q 2188 391 2477 730 
Q 2766 1069 2766 1631 
L 2766 1759 
L 2194 1759 
z
M 3341 1997 
L 3341 0 
L 2766 0 
L 2766 531 
Q 2569 213 2275 61 
Q 1981 -91 1556 -91 
Q 1019 -91 701 211 
Q 384 513 384 1019 
Q 384 1609 779 1909 
Q 1175 2209 1959 2209 
L 2766 2209 
L 2766 2266 
Q 2766 2663 2505 2880 
Q 2244 3097 1772 3097 
Q 1472 3097 1187 3025 
Q 903 2953 641 2809 
L 641 3341 
Q 956 3463 1253 3523 
Q 1550 3584 1831 3584 
Q 2591 3584 2966 3190 
Q 3341 2797 3341 1997 
z
" transform="scale(0.015625)"/>
        <path id="DejaVuSans-63" d="M 3122 3366 
L 3122 2828 
Q 2878 2963 2633 3030 
Q 2388 3097 2138 3097 
Q 1578 3097 1268 2742 
Q 959 2388 959 1747 
Q 959 1106 1268 751 
Q 1578 397 2138 397 
Q 2388 397 2633 464 
Q 2878 531 3122 666 
L 3122 134 
Q 2881 22 2623 -34 
Q 2366 -91 2075 -91 
Q 1284 -91 818 406 
Q 353 903 353 1747 
Q 353 2603 823 3093 
Q 1294 3584 2113 3584 
Q 2378 3584 2631 3529 
Q 2884 3475 3122 3366 
z
" transform="scale(0.015625)"/>
        <path id="DejaVuSans-6b" d="M 581 4863 
L 1159 4863 
L 1159 1991 
L 2875 3500 
L 3609 3500 
L 1753 1863 
L 3688 0 
L 2938 0 
L 1159 1709 
L 1159 0 
L 581 0 
L 581 4863 
z
" transform="scale(0.015625)"/>
        <path id="DejaVuSans-5f" d="M 3263 -1063 
L 3263 -1509 
L -63 -1509 
L -63 -1063 
L 3263 -1063 
z
" transform="scale(0.015625)"/>
        <path id="DejaVuSans-70" d="M 1159 525 
L 1159 -1331 
L 581 -1331 
L 581 3500 
L 1159 3500 
L 1159 2969 
Q 1341 3281 1617 3432 
Q 1894 3584 2278 3584 
Q 2916 3584 3314 3078 
Q 3713 2572 3713 1747 
Q 3713 922 3314 415 
Q 2916 -91 2278 -91 
Q 1894 -91 1617 61 
Q 1341 213 1159 525 
z
M 3116 1747 
Q 3116 2381 2855 2742 
Q 2594 3103 2138 3103 
Q 1681 3103 1420 2742 
Q 1159 2381 1159 1747 
Q 1159 1113 1420 752 
Q 1681 391 2138 391 
Q 2594 391 2855 752 
Q 3116 1113 3116 1747 
z
" transform="scale(0.015625)"/>
        <path id="DejaVuSans-68" d="M 3513 2113 
L 3513 0 
L 2938 0 
L 2938 2094 
Q 2938 2591 2744 2837 
Q 2550 3084 2163 3084 
Q 1697 3084 1428 2787 
Q 1159 2491 1159 1978 
L 1159 0 
L 581 0 
L 581 4863 
L 1159 4863 
L 1159 2956 
Q 1366 3272 1645 3428 
Q 1925 3584 2291 3584 
Q 2894 3584 3203 3211 
Q 3513 2838 3513 2113 
z
" transform="scale(0.015625)"/>
        <path id="DejaVuSans-72" d="M 2631 2963 
Q 2534 3019 2420 3045 
Q 2306 3072 2169 3072 
Q 1681 3072 1420 2755 
Q 1159 2438 1159 1844 
L 1159 0 
L 581 0 
L 581 3500 
L 1159 3500 
L 1159 2956 
Q 1341 3275 1631 3429 
Q 1922 3584 2338 3584 
Q 2397 3584 2469 3576 
Q 2541 3569 2628 3553 
L 2631 2963 
z
" transform="scale(0.015625)"/>
        <path id="DejaVuSans-6d" d="M 3328 2828 
Q 3544 3216 3844 3400 
Q 4144 3584 4550 3584 
Q 5097 3584 5394 3201 
Q 5691 2819 5691 2113 
L 5691 0 
L 5113 0 
L 5113 2094 
Q 5113 2597 4934 2840 
Q 4756 3084 4391 3084 
Q 3944 3084 3684 2787 
Q 3425 2491 3425 1978 
L 3425 0 
L 2847 0 
L 2847 2094 
Q 2847 2600 2669 2842 
Q 2491 3084 2119 3084 
Q 1678 3084 1418 2786 
Q 1159 2488 1159 1978 
L 1159 0 
L 581 0 
L 581 3500 
L 1159 3500 
L 1159 2956 
Q 1356 3278 1631 3431 
Q 1906 3584 2284 3584 
Q 2666 3584 2933 3390 
Q 3200 3197 3328 2828 
z
" transform="scale(0.015625)"/>
        <path id="DejaVuSans-79" d="M 2059 -325 
Q 1816 -950 1584 -1140 
Q 1353 -1331 966 -1331 
L 506 -1331 
L 506 -850 
L 844 -850 
Q 1081 -850 1212 -737 
Q 1344 -625 1503 -206 
L 1606 56 
L 191 3500 
L 800 3500 
L 1894 763 
L 2988 3500 
L 3597 3500 
L 2059 -325 
z
" transform="scale(0.015625)"/>
       </defs>
       <use xlink:href="#DejaVuSans-62"/>
       <use xlink:href="#DejaVuSans-61" x="63.476562"/>
       <use xlink:href="#DejaVuSans-63" x="124.755859"/>
       <use xlink:href="#DejaVuSans-6b" x="179.736328"/>
       <use xlink:href="#DejaVuSans-5f" x="237.646484"/>
       <use xlink:href="#DejaVuSans-70" x="287.646484"/>
       <use xlink:href="#DejaVuSans-68" x="351.123047"/>
       <use xlink:href="#DejaVuSans-61" x="414.501953"/>
       <use xlink:href="#DejaVuSans-72" x="475.78125"/>
       <use xlink:href="#DejaVuSans-6d" x="515.144531"/>
       <use xlink:href="#DejaVuSans-61" x="612.556641"/>
       <use xlink:href="#DejaVuSans-63" x="673.835938"/>
       <use xlink:href="#DejaVuSans-79" x="728.816406"/>
      </g>
     </g>
    </g>
    <g id="xtick_2">
     <g id="line2d_2">
      <g>
       <use xlink:href="#ma1bceaa4ee" x="89.110588" y="307.584" style="stroke: #000000; stroke-width: 0.8"/>
      </g>
     </g>
     <g id="text_2">
      <!-- back_restaurants -->
      <g transform="translate(91.730901 400.69025)rotate(-90)scale(0.1 -0.1)">
       <defs>
        <path id="DejaVuSans-65" d="M 3597 1894 
L 3597 1613 
L 953 1613 
Q 991 1019 1311 708 
Q 1631 397 2203 397 
Q 2534 397 2845 478 
Q 3156 559 3463 722 
L 3463 178 
Q 3153 47 2828 -22 
Q 2503 -91 2169 -91 
Q 1331 -91 842 396 
Q 353 884 353 1716 
Q 353 2575 817 3079 
Q 1281 3584 2069 3584 
Q 2775 3584 3186 3129 
Q 3597 2675 3597 1894 
z
M 3022 2063 
Q 3016 2534 2758 2815 
Q 2500 3097 2075 3097 
Q 1594 3097 1305 2825 
Q 1016 2553 972 2059 
L 3022 2063 
z
" transform="scale(0.015625)"/>
        <path id="DejaVuSans-73" d="M 2834 3397 
L 2834 2853 
Q 2591 2978 2328 3040 
Q 2066 3103 1784 3103 
Q 1356 3103 1142 2972 
Q 928 2841 928 2578 
Q 928 2378 1081 2264 
Q 1234 2150 1697 2047 
L 1894 2003 
Q 2506 1872 2764 1633 
Q 3022 1394 3022 966 
Q 3022 478 2636 193 
Q 2250 -91 1575 -91 
Q 1294 -91 989 -36 
Q 684 19 347 128 
L 347 722 
Q 666 556 975 473 
Q 1284 391 1588 391 
Q 1994 391 2212 530 
Q 2431 669 2431 922 
Q 2431 1156 2273 1281 
Q 2116 1406 1581 1522 
L 1381 1569 
Q 847 1681 609 1914 
Q 372 2147 372 2553 
Q 372 3047 722 3315 
Q 1072 3584 1716 3584 
Q 2034 3584 2315 3537 
Q 2597 3491 2834 3397 
z
" transform="scale(0.015625)"/>
        <path id="DejaVuSans-74" d="M 1172 4494 
L 1172 3500 
L 2356 3500 
L 2356 3053 
L 1172 3053 
L 1172 1153 
Q 1172 725 1289 603 
Q 1406 481 1766 481 
L 2356 481 
L 2356 0 
L 1766 0 
Q 1100 0 847 248 
Q 594 497 594 1153 
L 594 3053 
L 172 3053 
L 172 3500 
L 594 3500 
L 594 4494 
L 1172 4494 
z
" transform="scale(0.015625)"/>
        <path id="DejaVuSans-75" d="M 544 1381 
L 544 3500 
L 1119 3500 
L 1119 1403 
Q 1119 906 1312 657 
Q 1506 409 1894 409 
Q 2359 409 2629 706 
Q 2900 1003 2900 1516 
L 2900 3500 
L 3475 3500 
L 3475 0 
L 2900 0 
L 2900 538 
Q 2691 219 2414 64 
Q 2138 -91 1772 -91 
Q 1169 -91 856 284 
Q 544 659 544 1381 
z
M 1991 3584 
L 1991 3584 
z
" transform="scale(0.015625)"/>
        <path id="DejaVuSans-6e" d="M 3513 2113 
L 3513 0 
L 2938 0 
L 2938 2094 
Q 2938 2591 2744 2837 
Q 2550 3084 2163 3084 
Q 1697 3084 1428 2787 
Q 1159 2491 1159 1978 
L 1159 0 
L 581 0 
L 581 3500 
L 1159 3500 
L 1159 2956 
Q 1366 3272 1645 3428 
Q 1925 3584 2291 3584 
Q 2894 3584 3203 3211 
Q 3513 2838 3513 2113 
z
" transform="scale(0.015625)"/>
       </defs>
       <use xlink:href="#DejaVuSans-62"/>
       <use xlink:href="#DejaVuSans-61" x="63.476562"/>
       <use xlink:href="#DejaVuSans-63" x="124.755859"/>
       <use xlink:href="#DejaVuSans-6b" x="179.736328"/>
       <use xlink:href="#DejaVuSans-5f" x="237.646484"/>
       <use xlink:href="#DejaVuSans-72" x="287.646484"/>
       <use xlink:href="#DejaVuSans-65" x="326.509766"/>
       <use xlink:href="#DejaVuSans-73" x="388.033203"/>
       <use xlink:href="#DejaVuSans-74" x="440.132812"/>
       <use xlink:href="#DejaVuSans-61" x="479.341797"/>
       <use xlink:href="#DejaVuSans-75" x="540.621094"/>
       <use xlink:href="#DejaVuSans-72" x="604"/>
       <use xlink:href="#DejaVuSans-61" x="645.113281"/>
       <use xlink:href="#DejaVuSans-6e" x="706.392578"/>
       <use xlink:href="#DejaVuSans-74" x="769.771484"/>
       <use xlink:href="#DejaVuSans-73" x="808.980469"/>
      </g>
     </g>
    </g>
    <g id="xtick_3">
     <g id="line2d_3">
      <g>
       <use xlink:href="#ma1bceaa4ee" x="110.117647" y="307.584" style="stroke: #000000; stroke-width: 0.8"/>
      </g>
     </g>
     <g id="text_3">
      <!-- back_clothes -->
      <g transform="translate(112.73796 379.36525)rotate(-90)scale(0.1 -0.1)">
       <defs>
        <path id="DejaVuSans-6c" d="M 603 4863 
L 1178 4863 
L 1178 0 
L 603 0 
L 603 4863 
z
" transform="scale(0.015625)"/>
        <path id="DejaVuSans-6f" d="M 1959 3097 
Q 1497 3097 1228 2736 
Q 959 2375 959 1747 
Q 959 1119 1226 758 
Q 1494 397 1959 397 
Q 2419 397 2687 759 
Q 2956 1122 2956 1747 
Q 2956 2369 2687 2733 
Q 2419 3097 1959 3097 
z
M 1959 3584 
Q 2709 3584 3137 3096 
Q 3566 2609 3566 1747 
Q 3566 888 3137 398 
Q 2709 -91 1959 -91 
Q 1206 -91 779 398 
Q 353 888 353 1747 
Q 353 2609 779 3096 
Q 1206 3584 1959 3584 
z
" transform="scale(0.015625)"/>
       </defs>
       <use xlink:href="#DejaVuSans-62"/>
       <use xlink:href="#DejaVuSans-61" x="63.476562"/>
       <use xlink:href="#DejaVuSans-63" x="124.755859"/>
       <use xlink:href="#DejaVuSans-6b" x="179.736328"/>
       <use xlink:href="#DejaVuSans-5f" x="237.646484"/>
       <use xlink:href="#DejaVuSans-63" x="287.646484"/>
       <use xlink:href="#DejaVuSans-6c" x="342.626953"/>
       <use xlink:href="#DejaVuSans-6f" x="370.410156"/>
       <use xlink:href="#DejaVuSans-74" x="431.591797"/>
       <use xlink:href="#DejaVuSans-68" x="470.800781"/>
       <use xlink:href="#DejaVuSans-65" x="534.179688"/>
       <use xlink:href="#DejaVuSans-73" x="595.703125"/>
      </g>
     </g>
    </g>
    <g id="xtick_4">
     <g id="line2d_4">
      <g>
       <use xlink:href="#ma1bceaa4ee" x="131.124706" y="307.584" style="stroke: #000000; stroke-width: 0.8"/>
      </g>
     </g>
     <g id="text_4">
      <!-- back_car_service -->
      <g transform="translate(133.745018 399.909)rotate(-90)scale(0.1 -0.1)">
       <defs>
        <path id="DejaVuSans-76" d="M 191 3500 
L 800 3500 
L 1894 563 
L 2988 3500 
L 3597 3500 
L 2284 0 
L 1503 0 
L 191 3500 
z
" transform="scale(0.015625)"/>
        <path id="DejaVuSans-69" d="M 603 3500 
L 1178 3500 
L 1178 0 
L 603 0 
L 603 3500 
z
M 603 4863 
L 1178 4863 
L 1178 4134 
L 603 4134 
L 603 4863 
z
" transform="scale(0.015625)"/>
       </defs>
       <use xlink:href="#DejaVuSans-62"/>
       <use xlink:href="#DejaVuSans-61" x="63.476562"/>
       <use xlink:href="#DejaVuSans-63" x="124.755859"/>
       <use xlink:href="#DejaVuSans-6b" x="179.736328"/>
       <use xlink:href="#DejaVuSans-5f" x="237.646484"/>
       <use xlink:href="#DejaVuSans-63" x="287.646484"/>
       <use xlink:href="#DejaVuSans-61" x="342.626953"/>
       <use xlink:href="#DejaVuSans-72" x="403.90625"/>
       <use xlink:href="#DejaVuSans-5f" x="445.019531"/>
       <use xlink:href="#DejaVuSans-73" x="495.019531"/>
       <use xlink:href="#DejaVuSans-65" x="547.119141"/>
       <use xlink:href="#DejaVuSans-72" x="608.642578"/>
       <use xlink:href="#DejaVuSans-76" x="649.755859"/>
       <use xlink:href="#DejaVuSans-69" x="708.935547"/>
       <use xlink:href="#DejaVuSans-63" x="736.71875"/>
       <use xlink:href="#DejaVuSans-65" x="791.699219"/>
      </g>
     </g>
    </g>
    <g id="xtick_5">
     <g id="line2d_5">
      <g>
       <use xlink:href="#ma1bceaa4ee" x="152.131765" y="307.584" style="stroke: #000000; stroke-width: 0.8"/>
      </g>
     </g>
     <g id="text_5">
      <!-- back_supermarkets -->
      <g transform="translate(154.752077 412.024625)rotate(-90)scale(0.1 -0.1)">
       <use xlink:href="#DejaVuSans-62"/>
       <use xlink:href="#DejaVuSans-61" x="63.476562"/>
       <use xlink:href="#DejaVuSans-63" x="124.755859"/>
       <use xlink:href="#DejaVuSans-6b" x="179.736328"/>
       <use xlink:href="#DejaVuSans-5f" x="237.646484"/>
       <use xlink:href="#DejaVuSans-73" x="287.646484"/>
       <use xlink:href="#DejaVuSans-75" x="339.746094"/>
       <use xlink:href="#DejaVuSans-70" x="403.125"/>
       <use xlink:href="#DejaVuSans-65" x="466.601562"/>
       <use xlink:href="#DejaVuSans-72" x="528.125"/>
       <use xlink:href="#DejaVuSans-6d" x="567.488281"/>
       <use xlink:href="#DejaVuSans-61" x="664.900391"/>
       <use xlink:href="#DejaVuSans-72" x="726.179688"/>
       <use xlink:href="#DejaVuSans-6b" x="767.292969"/>
       <use xlink:href="#DejaVuSans-65" x="821.578125"/>
       <use xlink:href="#DejaVuSans-74" x="883.101562"/>
       <use xlink:href="#DejaVuSans-73" x="922.310547"/>
      </g>
     </g>
    </g>
    <g id="xtick_6">
     <g id="line2d_6">
      <g>
       <use xlink:href="#ma1bceaa4ee" x="173.138824" y="307.584" style="stroke: #000000; stroke-width: 0.8"/>
      </g>
     </g>
     <g id="text_6">
      <!-- back_taxi -->
      <g transform="translate(175.759136 362.094937)rotate(-90)scale(0.1 -0.1)">
       <defs>
        <path id="DejaVuSans-78" d="M 3513 3500 
L 2247 1797 
L 3578 0 
L 2900 0 
L 1881 1375 
L 863 0 
L 184 0 
L 1544 1831 
L 300 3500 
L 978 3500 
L 1906 2253 
L 2834 3500 
L 3513 3500 
z
" transform="scale(0.015625)"/>
       </defs>
       <use xlink:href="#DejaVuSans-62"/>
       <use xlink:href="#DejaVuSans-61" x="63.476562"/>
       <use xlink:href="#DejaVuSans-63" x="124.755859"/>
       <use xlink:href="#DejaVuSans-6b" x="179.736328"/>
       <use xlink:href="#DejaVuSans-5f" x="237.646484"/>
       <use xlink:href="#DejaVuSans-74" x="287.646484"/>
       <use xlink:href="#DejaVuSans-61" x="326.855469"/>
       <use xlink:href="#DejaVuSans-78" x="388.134766"/>
       <use xlink:href="#DejaVuSans-69" x="447.314453"/>
      </g>
     </g>
    </g>
    <g id="xtick_7">
     <g id="line2d_7">
      <g>
       <use xlink:href="#ma1bceaa4ee" x="194.145882" y="307.584" style="stroke: #000000; stroke-width: 0.8"/>
      </g>
     </g>
     <g id="text_7">
      <!-- back_beauty -->
      <g transform="translate(196.766195 378.155875)rotate(-90)scale(0.1 -0.1)">
       <use xlink:href="#DejaVuSans-62"/>
       <use xlink:href="#DejaVuSans-61" x="63.476562"/>
       <use xlink:href="#DejaVuSans-63" x="124.755859"/>
       <use xlink:href="#DejaVuSans-6b" x="179.736328"/>
       <use xlink:href="#DejaVuSans-5f" x="237.646484"/>
       <use xlink:href="#DejaVuSans-62" x="287.646484"/>
       <use xlink:href="#DejaVuSans-65" x="351.123047"/>
       <use xlink:href="#DejaVuSans-61" x="412.646484"/>
       <use xlink:href="#DejaVuSans-75" x="473.925781"/>
       <use xlink:href="#DejaVuSans-74" x="537.304688"/>
       <use xlink:href="#DejaVuSans-79" x="576.513672"/>
      </g>
     </g>
    </g>
    <g id="xtick_8">
     <g id="line2d_8">
      <g>
       <use xlink:href="#ma1bceaa4ee" x="215.152941" y="307.584" style="stroke: #000000; stroke-width: 0.8"/>
      </g>
     </g>
     <g id="text_8">
      <!-- back_entertainment -->
      <g transform="translate(217.773254 415.34025)rotate(-90)scale(0.1 -0.1)">
       <use xlink:href="#DejaVuSans-62"/>
       <use xlink:href="#DejaVuSans-61" x="63.476562"/>
       <use xlink:href="#DejaVuSans-63" x="124.755859"/>
       <use xlink:href="#DejaVuSans-6b" x="179.736328"/>
       <use xlink:href="#DejaVuSans-5f" x="237.646484"/>
       <use xlink:href="#DejaVuSans-65" x="287.646484"/>
       <use xlink:href="#DejaVuSans-6e" x="349.169922"/>
       <use xlink:href="#DejaVuSans-74" x="412.548828"/>
       <use xlink:href="#DejaVuSans-65" x="451.757812"/>
       <use xlink:href="#DejaVuSans-72" x="513.28125"/>
       <use xlink:href="#DejaVuSans-74" x="554.394531"/>
       <use xlink:href="#DejaVuSans-61" x="593.603516"/>
       <use xlink:href="#DejaVuSans-69" x="654.882812"/>
       <use xlink:href="#DejaVuSans-6e" x="682.666016"/>
       <use xlink:href="#DejaVuSans-6d" x="746.044922"/>
       <use xlink:href="#DejaVuSans-65" x="843.457031"/>
       <use xlink:href="#DejaVuSans-6e" x="904.980469"/>
       <use xlink:href="#DejaVuSans-74" x="968.359375"/>
      </g>
     </g>
    </g>
    <g id="xtick_9">
     <g id="line2d_9">
      <g>
       <use xlink:href="#ma1bceaa4ee" x="236.16" y="307.584" style="stroke: #000000; stroke-width: 0.8"/>
      </g>
     </g>
     <g id="text_9">
      <!-- back_railway -->
      <g transform="translate(238.780313 379.369937)rotate(-90)scale(0.1 -0.1)">
       <defs>
        <path id="DejaVuSans-77" d="M 269 3500 
L 844 3500 
L 1563 769 
L 2278 3500 
L 2956 3500 
L 3675 769 
L 4391 3500 
L 4966 3500 
L 4050 0 
L 3372 0 
L 2619 2869 
L 1863 0 
L 1184 0 
L 269 3500 
z
" transform="scale(0.015625)"/>
       </defs>
       <use xlink:href="#DejaVuSans-62"/>
       <use xlink:href="#DejaVuSans-61" x="63.476562"/>
       <use xlink:href="#DejaVuSans-63" x="124.755859"/>
       <use xlink:href="#DejaVuSans-6b" x="179.736328"/>
       <use xlink:href="#DejaVuSans-5f" x="237.646484"/>
       <use xlink:href="#DejaVuSans-72" x="287.646484"/>
       <use xlink:href="#DejaVuSans-61" x="328.759766"/>
       <use xlink:href="#DejaVuSans-69" x="390.039062"/>
       <use xlink:href="#DejaVuSans-6c" x="417.822266"/>
       <use xlink:href="#DejaVuSans-77" x="445.605469"/>
       <use xlink:href="#DejaVuSans-61" x="527.392578"/>
       <use xlink:href="#DejaVuSans-79" x="588.671875"/>
      </g>
     </g>
    </g>
    <g id="xtick_10">
     <g id="line2d_10">
      <g>
       <use xlink:href="#ma1bceaa4ee" x="257.167059" y="307.584" style="stroke: #000000; stroke-width: 0.8"/>
      </g>
     </g>
     <g id="text_10">
      <!-- back_education -->
      <g transform="translate(259.787371 392.969938)rotate(-90)scale(0.1 -0.1)">
       <defs>
        <path id="DejaVuSans-64" d="M 2906 2969 
L 2906 4863 
L 3481 4863 
L 3481 0 
L 2906 0 
L 2906 525 
Q 2725 213 2448 61 
Q 2172 -91 1784 -91 
Q 1150 -91 751 415 
Q 353 922 353 1747 
Q 353 2572 751 3078 
Q 1150 3584 1784 3584 
Q 2172 3584 2448 3432 
Q 2725 3281 2906 2969 
z
M 947 1747 
Q 947 1113 1208 752 
Q 1469 391 1925 391 
Q 2381 391 2643 752 
Q 2906 1113 2906 1747 
Q 2906 2381 2643 2742 
Q 2381 3103 1925 3103 
Q 1469 3103 1208 2742 
Q 947 2381 947 1747 
z
" transform="scale(0.015625)"/>
       </defs>
       <use xlink:href="#DejaVuSans-62"/>
       <use xlink:href="#DejaVuSans-61" x="63.476562"/>
       <use xlink:href="#DejaVuSans-63" x="124.755859"/>
       <use xlink:href="#DejaVuSans-6b" x="179.736328"/>
       <use xlink:href="#DejaVuSans-5f" x="237.646484"/>
       <use xlink:href="#DejaVuSans-65" x="287.646484"/>
       <use xlink:href="#DejaVuSans-64" x="349.169922"/>
       <use xlink:href="#DejaVuSans-75" x="412.646484"/>
       <use xlink:href="#DejaVuSans-63" x="476.025391"/>
       <use xlink:href="#DejaVuSans-61" x="531.005859"/>
       <use xlink:href="#DejaVuSans-74" x="592.285156"/>
       <use xlink:href="#DejaVuSans-69" x="631.494141"/>
       <use xlink:href="#DejaVuSans-6f" x="659.277344"/>
       <use xlink:href="#DejaVuSans-6e" x="720.458984"/>
      </g>
     </g>
    </g>
    <g id="xtick_11">
     <g id="line2d_11">
      <g>
       <use xlink:href="#ma1bceaa4ee" x="278.174118" y="307.584" style="stroke: #000000; stroke-width: 0.8"/>
      </g>
     </g>
     <g id="text_11">
      <!-- back_house -->
      <g transform="translate(280.79443 373.505875)rotate(-90)scale(0.1 -0.1)">
       <use xlink:href="#DejaVuSans-62"/>
       <use xlink:href="#DejaVuSans-61" x="63.476562"/>
       <use xlink:href="#DejaVuSans-63" x="124.755859"/>
       <use xlink:href="#DejaVuSans-6b" x="179.736328"/>
       <use xlink:href="#DejaVuSans-5f" x="237.646484"/>
       <use xlink:href="#DejaVuSans-68" x="287.646484"/>
       <use xlink:href="#DejaVuSans-6f" x="351.025391"/>
       <use xlink:href="#DejaVuSans-75" x="412.207031"/>
       <use xlink:href="#DejaVuSans-73" x="475.585938"/>
       <use xlink:href="#DejaVuSans-65" x="527.685547"/>
      </g>
     </g>
    </g>
    <g id="xtick_12">
     <g id="line2d_12">
      <g>
       <use xlink:href="#ma1bceaa4ee" x="299.181176" y="307.584" style="stroke: #000000; stroke-width: 0.8"/>
      </g>
     </g>
     <g id="text_12">
      <!-- back_sports_goods -->
      <g transform="translate(301.801489 409.410562)rotate(-90)scale(0.1 -0.1)">
       <defs>
        <path id="DejaVuSans-67" d="M 2906 1791 
Q 2906 2416 2648 2759 
Q 2391 3103 1925 3103 
Q 1463 3103 1205 2759 
Q 947 2416 947 1791 
Q 947 1169 1205 825 
Q 1463 481 1925 481 
Q 2391 481 2648 825 
Q 2906 1169 2906 1791 
z
M 3481 434 
Q 3481 -459 3084 -895 
Q 2688 -1331 1869 -1331 
Q 1566 -1331 1297 -1286 
Q 1028 -1241 775 -1147 
L 775 -588 
Q 1028 -725 1275 -790 
Q 1522 -856 1778 -856 
Q 2344 -856 2625 -561 
Q 2906 -266 2906 331 
L 2906 616 
Q 2728 306 2450 153 
Q 2172 0 1784 0 
Q 1141 0 747 490 
Q 353 981 353 1791 
Q 353 2603 747 3093 
Q 1141 3584 1784 3584 
Q 2172 3584 2450 3431 
Q 2728 3278 2906 2969 
L 2906 3500 
L 3481 3500 
L 3481 434 
z
" transform="scale(0.015625)"/>
       </defs>
       <use xlink:href="#DejaVuSans-62"/>
       <use xlink:href="#DejaVuSans-61" x="63.476562"/>
       <use xlink:href="#DejaVuSans-63" x="124.755859"/>
       <use xlink:href="#DejaVuSans-6b" x="179.736328"/>
       <use xlink:href="#DejaVuSans-5f" x="237.646484"/>
       <use xlink:href="#DejaVuSans-73" x="287.646484"/>
       <use xlink:href="#DejaVuSans-70" x="339.746094"/>
       <use xlink:href="#DejaVuSans-6f" x="403.222656"/>
       <use xlink:href="#DejaVuSans-72" x="464.404297"/>
       <use xlink:href="#DejaVuSans-74" x="505.517578"/>
       <use xlink:href="#DejaVuSans-73" x="544.726562"/>
       <use xlink:href="#DejaVuSans-5f" x="596.826172"/>
       <use xlink:href="#DejaVuSans-67" x="646.826172"/>
       <use xlink:href="#DejaVuSans-6f" x="710.302734"/>
       <use xlink:href="#DejaVuSans-6f" x="771.484375"/>
       <use xlink:href="#DejaVuSans-64" x="832.666016"/>
       <use xlink:href="#DejaVuSans-73" x="896.142578"/>
      </g>
     </g>
    </g>
    <g id="xtick_13">
     <g id="line2d_13">
      <g>
       <use xlink:href="#ma1bceaa4ee" x="320.188235" y="307.584" style="stroke: #000000; stroke-width: 0.8"/>
      </g>
     </g>
     <g id="text_13">
      <!-- back_pets -->
      <g transform="translate(322.808548 364.980875)rotate(-90)scale(0.1 -0.1)">
       <use xlink:href="#DejaVuSans-62"/>
       <use xlink:href="#DejaVuSans-61" x="63.476562"/>
       <use xlink:href="#DejaVuSans-63" x="124.755859"/>
       <use xlink:href="#DejaVuSans-6b" x="179.736328"/>
       <use xlink:href="#DejaVuSans-5f" x="237.646484"/>
       <use xlink:href="#DejaVuSans-70" x="287.646484"/>
       <use xlink:href="#DejaVuSans-65" x="351.123047"/>
       <use xlink:href="#DejaVuSans-74" x="412.646484"/>
       <use xlink:href="#DejaVuSans-73" x="451.855469"/>
      </g>
     </g>
    </g>
    <g id="xtick_14">
     <g id="line2d_14">
      <g>
       <use xlink:href="#ma1bceaa4ee" x="341.195294" y="307.584" style="stroke: #000000; stroke-width: 0.8"/>
      </g>
     </g>
     <g id="text_14">
      <!-- back_flowers -->
      <g transform="translate(343.815607 379.418375)rotate(-90)scale(0.1 -0.1)">
       <defs>
        <path id="DejaVuSans-66" d="M 2375 4863 
L 2375 4384 
L 1825 4384 
Q 1516 4384 1395 4259 
Q 1275 4134 1275 3809 
L 1275 3500 
L 2222 3500 
L 2222 3053 
L 1275 3053 
L 1275 0 
L 697 0 
L 697 3053 
L 147 3053 
L 147 3500 
L 697 3500 
L 697 3744 
Q 697 4328 969 4595 
Q 1241 4863 1831 4863 
L 2375 4863 
z
" transform="scale(0.015625)"/>
       </defs>
       <use xlink:href="#DejaVuSans-62"/>
       <use xlink:href="#DejaVuSans-61" x="63.476562"/>
       <use xlink:href="#DejaVuSans-63" x="124.755859"/>
       <use xlink:href="#DejaVuSans-6b" x="179.736328"/>
       <use xlink:href="#DejaVuSans-5f" x="237.646484"/>
       <use xlink:href="#DejaVuSans-66" x="287.646484"/>
       <use xlink:href="#DejaVuSans-6c" x="322.851562"/>
       <use xlink:href="#DejaVuSans-6f" x="350.634766"/>
       <use xlink:href="#DejaVuSans-77" x="411.816406"/>
       <use xlink:href="#DejaVuSans-65" x="493.603516"/>
       <use xlink:href="#DejaVuSans-72" x="555.126953"/>
       <use xlink:href="#DejaVuSans-73" x="596.240234"/>
      </g>
     </g>
    </g>
    <g id="xtick_15">
     <g id="line2d_15">
      <g>
       <use xlink:href="#ma1bceaa4ee" x="362.202353" y="307.584" style="stroke: #000000; stroke-width: 0.8"/>
      </g>
     </g>
     <g id="text_15">
      <!-- back_fastfood -->
      <g transform="translate(364.822665 384.234)rotate(-90)scale(0.1 -0.1)">
       <use xlink:href="#DejaVuSans-62"/>
       <use xlink:href="#DejaVuSans-61" x="63.476562"/>
       <use xlink:href="#DejaVuSans-63" x="124.755859"/>
       <use xlink:href="#DejaVuSans-6b" x="179.736328"/>
       <use xlink:href="#DejaVuSans-5f" x="237.646484"/>
       <use xlink:href="#DejaVuSans-66" x="287.646484"/>
       <use xlink:href="#DejaVuSans-61" x="322.851562"/>
       <use xlink:href="#DejaVuSans-73" x="384.130859"/>
       <use xlink:href="#DejaVuSans-74" x="436.230469"/>
       <use xlink:href="#DejaVuSans-66" x="475.439453"/>
       <use xlink:href="#DejaVuSans-6f" x="510.644531"/>
       <use xlink:href="#DejaVuSans-6f" x="571.826172"/>
       <use xlink:href="#DejaVuSans-64" x="633.007812"/>
      </g>
     </g>
    </g>
    <g id="xtick_16">
     <g id="line2d_16">
      <g>
       <use xlink:href="#ma1bceaa4ee" x="383.209412" y="307.584" style="stroke: #000000; stroke-width: 0.8"/>
      </g>
     </g>
     <g id="text_16">
      <!-- back_carsharing -->
      <g transform="translate(385.829724 396.337125)rotate(-90)scale(0.1 -0.1)">
       <use xlink:href="#DejaVuSans-62"/>
       <use xlink:href="#DejaVuSans-61" x="63.476562"/>
       <use xlink:href="#DejaVuSans-63" x="124.755859"/>
       <use xlink:href="#DejaVuSans-6b" x="179.736328"/>
       <use xlink:href="#DejaVuSans-5f" x="237.646484"/>
       <use xlink:href="#DejaVuSans-63" x="287.646484"/>
       <use xlink:href="#DejaVuSans-61" x="342.626953"/>
       <use xlink:href="#DejaVuSans-72" x="403.90625"/>
       <use xlink:href="#DejaVuSans-73" x="445.019531"/>
       <use xlink:href="#DejaVuSans-68" x="497.119141"/>
       <use xlink:href="#DejaVuSans-61" x="560.498047"/>
       <use xlink:href="#DejaVuSans-72" x="621.777344"/>
       <use xlink:href="#DejaVuSans-69" x="662.890625"/>
       <use xlink:href="#DejaVuSans-6e" x="690.673828"/>
       <use xlink:href="#DejaVuSans-67" x="754.052734"/>
      </g>
     </g>
    </g>
    <g id="xtick_17">
     <g id="line2d_17">
      <g>
       <use xlink:href="#ma1bceaa4ee" x="404.216471" y="307.584" style="stroke: #000000; stroke-width: 0.8"/>
      </g>
     </g>
     <g id="text_17">
      <!-- back_rent_car -->
      <g transform="translate(406.836783 384.384)rotate(-90)scale(0.1 -0.1)">
       <use xlink:href="#DejaVuSans-62"/>
       <use xlink:href="#DejaVuSans-61" x="63.476562"/>
       <use xlink:href="#DejaVuSans-63" x="124.755859"/>
       <use xlink:href="#DejaVuSans-6b" x="179.736328"/>
       <use xlink:href="#DejaVuSans-5f" x="237.646484"/>
       <use xlink:href="#DejaVuSans-72" x="287.646484"/>
       <use xlink:href="#DejaVuSans-65" x="326.509766"/>
       <use xlink:href="#DejaVuSans-6e" x="388.033203"/>
       <use xlink:href="#DejaVuSans-74" x="451.412109"/>
       <use xlink:href="#DejaVuSans-5f" x="490.621094"/>
       <use xlink:href="#DejaVuSans-63" x="540.621094"/>
       <use xlink:href="#DejaVuSans-61" x="595.601562"/>
       <use xlink:href="#DejaVuSans-72" x="656.880859"/>
      </g>
     </g>
    </g>
    <g id="text_18">
     <!-- категории -->
     <g transform="translate(208.727187 426.938688)scale(0.1 -0.1)">
      <defs>
       <path id="DejaVuSans-43a" d="M 581 3500 
L 1153 3500 
L 1153 1856 
L 2775 3500 
L 3481 3500 
L 2144 2147 
L 3653 0 
L 3009 0 
L 1769 1766 
L 1153 1141 
L 1153 0 
L 581 0 
L 581 3500 
z
" transform="scale(0.015625)"/>
       <path id="DejaVuSans-430" d="M 2194 1759 
Q 1497 1759 1228 1600 
Q 959 1441 959 1056 
Q 959 750 1161 570 
Q 1363 391 1709 391 
Q 2188 391 2477 730 
Q 2766 1069 2766 1631 
L 2766 1759 
L 2194 1759 
z
M 3341 1997 
L 3341 0 
L 2766 0 
L 2766 531 
Q 2569 213 2275 61 
Q 1981 -91 1556 -91 
Q 1019 -91 701 211 
Q 384 513 384 1019 
Q 384 1609 779 1909 
Q 1175 2209 1959 2209 
L 2766 2209 
L 2766 2266 
Q 2766 2663 2505 2880 
Q 2244 3097 1772 3097 
Q 1472 3097 1187 3025 
Q 903 2953 641 2809 
L 641 3341 
Q 956 3463 1253 3523 
Q 1550 3584 1831 3584 
Q 2591 3584 2966 3190 
Q 3341 2797 3341 1997 
z
" transform="scale(0.015625)"/>
       <path id="DejaVuSans-442" d="M 188 3500 
L 3541 3500 
L 3541 3041 
L 2147 3041 
L 2147 0 
L 1581 0 
L 1581 3041 
L 188 3041 
L 188 3500 
z
" transform="scale(0.015625)"/>
       <path id="DejaVuSans-435" d="M 3597 1894 
L 3597 1613 
L 953 1613 
Q 991 1019 1311 708 
Q 1631 397 2203 397 
Q 2534 397 2845 478 
Q 3156 559 3463 722 
L 3463 178 
Q 3153 47 2828 -22 
Q 2503 -91 2169 -91 
Q 1331 -91 842 396 
Q 353 884 353 1716 
Q 353 2575 817 3079 
Q 1281 3584 2069 3584 
Q 2775 3584 3186 3129 
Q 3597 2675 3597 1894 
z
M 3022 2063 
Q 3016 2534 2758 2815 
Q 2500 3097 2075 3097 
Q 1594 3097 1305 2825 
Q 1016 2553 972 2059 
L 3022 2063 
z
" transform="scale(0.015625)"/>
       <path id="DejaVuSans-433" d="M 581 0 
L 581 3500 
L 3050 3500 
L 3050 3041 
L 1159 3041 
L 1159 0 
L 581 0 
z
" transform="scale(0.015625)"/>
       <path id="DejaVuSans-43e" d="M 1959 3097 
Q 1497 3097 1228 2736 
Q 959 2375 959 1747 
Q 959 1119 1226 758 
Q 1494 397 1959 397 
Q 2419 397 2687 759 
Q 2956 1122 2956 1747 
Q 2956 2369 2687 2733 
Q 2419 3097 1959 3097 
z
M 1959 3584 
Q 2709 3584 3137 3096 
Q 3566 2609 3566 1747 
Q 3566 888 3137 398 
Q 2709 -91 1959 -91 
Q 1206 -91 779 398 
Q 353 888 353 1747 
Q 353 2609 779 3096 
Q 1206 3584 1959 3584 
z
" transform="scale(0.015625)"/>
       <path id="DejaVuSans-440" d="M 1159 525 
L 1159 -1331 
L 581 -1331 
L 581 3500 
L 1159 3500 
L 1159 2969 
Q 1341 3281 1617 3432 
Q 1894 3584 2278 3584 
Q 2916 3584 3314 3078 
Q 3713 2572 3713 1747 
Q 3713 922 3314 415 
Q 2916 -91 2278 -91 
Q 1894 -91 1617 61 
Q 1341 213 1159 525 
z
M 3116 1747 
Q 3116 2381 2855 2742 
Q 2594 3103 2138 3103 
Q 1681 3103 1420 2742 
Q 1159 2381 1159 1747 
Q 1159 1113 1420 752 
Q 1681 391 2138 391 
Q 2594 391 2855 752 
Q 3116 1113 3116 1747 
z
" transform="scale(0.015625)"/>
       <path id="DejaVuSans-438" d="M 3578 3500 
L 3578 0 
L 3006 0 
L 3006 2809 
L 1319 0 
L 581 0 
L 581 3500 
L 1153 3500 
L 1153 697 
L 2838 3500 
L 3578 3500 
z
" transform="scale(0.015625)"/>
      </defs>
      <use xlink:href="#DejaVuSans-43a"/>
      <use xlink:href="#DejaVuSans-430" x="60.400391"/>
      <use xlink:href="#DejaVuSans-442" x="121.679688"/>
      <use xlink:href="#DejaVuSans-435" x="179.931641"/>
      <use xlink:href="#DejaVuSans-433" x="241.455078"/>
      <use xlink:href="#DejaVuSans-43e" x="293.994141"/>
      <use xlink:href="#DejaVuSans-440" x="355.175781"/>
      <use xlink:href="#DejaVuSans-438" x="418.652344"/>
      <use xlink:href="#DejaVuSans-438" x="483.642578"/>
     </g>
    </g>
   </g>
   <g id="matplotlib.axis_2">
    <g id="ytick_1">
     <g id="line2d_18">
      <defs>
       <path id="m2ab67119cd" d="M 0 0 
L -3.5 0 
" style="stroke: #000000; stroke-width: 0.8"/>
      </defs>
      <g>
       <use xlink:href="#m2ab67119cd" x="57.6" y="307.584" style="stroke: #000000; stroke-width: 0.8"/>
      </g>
     </g>
     <g id="text_19">
      <!-- 0 -->
      <g transform="translate(44.2375 311.383219)scale(0.1 -0.1)">
       <defs>
        <path id="DejaVuSans-30" d="M 2034 4250 
Q 1547 4250 1301 3770 
Q 1056 3291 1056 2328 
Q 1056 1369 1301 889 
Q 1547 409 2034 409 
Q 2525 409 2770 889 
Q 3016 1369 3016 2328 
Q 3016 3291 2770 3770 
Q 2525 4250 2034 4250 
z
M 2034 4750 
Q 2819 4750 3233 4129 
Q 3647 3509 3647 2328 
Q 3647 1150 3233 529 
Q 2819 -91 2034 -91 
Q 1250 -91 836 529 
Q 422 1150 422 2328 
Q 422 3509 836 4129 
Q 1250 4750 2034 4750 
z
" transform="scale(0.015625)"/>
       </defs>
       <use xlink:href="#DejaVuSans-30"/>
      </g>
     </g>
    </g>
    <g id="ytick_2">
     <g id="line2d_19">
      <g>
       <use xlink:href="#m2ab67119cd" x="57.6" y="255.365965" style="stroke: #000000; stroke-width: 0.8"/>
      </g>
     </g>
     <g id="text_20">
      <!-- 2000 -->
      <g transform="translate(25.15 259.165184)scale(0.1 -0.1)">
       <defs>
        <path id="DejaVuSans-32" d="M 1228 531 
L 3431 531 
L 3431 0 
L 469 0 
L 469 531 
Q 828 903 1448 1529 
Q 2069 2156 2228 2338 
Q 2531 2678 2651 2914 
Q 2772 3150 2772 3378 
Q 2772 3750 2511 3984 
Q 2250 4219 1831 4219 
Q 1534 4219 1204 4116 
Q 875 4013 500 3803 
L 500 4441 
Q 881 4594 1212 4672 
Q 1544 4750 1819 4750 
Q 2544 4750 2975 4387 
Q 3406 4025 3406 3419 
Q 3406 3131 3298 2873 
Q 3191 2616 2906 2266 
Q 2828 2175 2409 1742 
Q 1991 1309 1228 531 
z
" transform="scale(0.015625)"/>
       </defs>
       <use xlink:href="#DejaVuSans-32"/>
       <use xlink:href="#DejaVuSans-30" x="63.623047"/>
       <use xlink:href="#DejaVuSans-30" x="127.246094"/>
       <use xlink:href="#DejaVuSans-30" x="190.869141"/>
      </g>
     </g>
    </g>
    <g id="ytick_3">
     <g id="line2d_20">
      <g>
       <use xlink:href="#m2ab67119cd" x="57.6" y="203.14793" style="stroke: #000000; stroke-width: 0.8"/>
      </g>
     </g>
     <g id="text_21">
      <!-- 4000 -->
      <g transform="translate(25.15 206.947148)scale(0.1 -0.1)">
       <defs>
        <path id="DejaVuSans-34" d="M 2419 4116 
L 825 1625 
L 2419 1625 
L 2419 4116 
z
M 2253 4666 
L 3047 4666 
L 3047 1625 
L 3713 1625 
L 3713 1100 
L 3047 1100 
L 3047 0 
L 2419 0 
L 2419 1100 
L 313 1100 
L 313 1709 
L 2253 4666 
z
" transform="scale(0.015625)"/>
       </defs>
       <use xlink:href="#DejaVuSans-34"/>
       <use xlink:href="#DejaVuSans-30" x="63.623047"/>
       <use xlink:href="#DejaVuSans-30" x="127.246094"/>
       <use xlink:href="#DejaVuSans-30" x="190.869141"/>
      </g>
     </g>
    </g>
    <g id="ytick_4">
     <g id="line2d_21">
      <g>
       <use xlink:href="#m2ab67119cd" x="57.6" y="150.929895" style="stroke: #000000; stroke-width: 0.8"/>
      </g>
     </g>
     <g id="text_22">
      <!-- 6000 -->
      <g transform="translate(25.15 154.729113)scale(0.1 -0.1)">
       <defs>
        <path id="DejaVuSans-36" d="M 2113 2584 
Q 1688 2584 1439 2293 
Q 1191 2003 1191 1497 
Q 1191 994 1439 701 
Q 1688 409 2113 409 
Q 2538 409 2786 701 
Q 3034 994 3034 1497 
Q 3034 2003 2786 2293 
Q 2538 2584 2113 2584 
z
M 3366 4563 
L 3366 3988 
Q 3128 4100 2886 4159 
Q 2644 4219 2406 4219 
Q 1781 4219 1451 3797 
Q 1122 3375 1075 2522 
Q 1259 2794 1537 2939 
Q 1816 3084 2150 3084 
Q 2853 3084 3261 2657 
Q 3669 2231 3669 1497 
Q 3669 778 3244 343 
Q 2819 -91 2113 -91 
Q 1303 -91 875 529 
Q 447 1150 447 2328 
Q 447 3434 972 4092 
Q 1497 4750 2381 4750 
Q 2619 4750 2861 4703 
Q 3103 4656 3366 4563 
z
" transform="scale(0.015625)"/>
       </defs>
       <use xlink:href="#DejaVuSans-36"/>
       <use xlink:href="#DejaVuSans-30" x="63.623047"/>
       <use xlink:href="#DejaVuSans-30" x="127.246094"/>
       <use xlink:href="#DejaVuSans-30" x="190.869141"/>
      </g>
     </g>
    </g>
    <g id="ytick_5">
     <g id="line2d_22">
      <g>
       <use xlink:href="#m2ab67119cd" x="57.6" y="98.711859" style="stroke: #000000; stroke-width: 0.8"/>
      </g>
     </g>
     <g id="text_23">
      <!-- 8000 -->
      <g transform="translate(25.15 102.511078)scale(0.1 -0.1)">
       <defs>
        <path id="DejaVuSans-38" d="M 2034 2216 
Q 1584 2216 1326 1975 
Q 1069 1734 1069 1313 
Q 1069 891 1326 650 
Q 1584 409 2034 409 
Q 2484 409 2743 651 
Q 3003 894 3003 1313 
Q 3003 1734 2745 1975 
Q 2488 2216 2034 2216 
z
M 1403 2484 
Q 997 2584 770 2862 
Q 544 3141 544 3541 
Q 544 4100 942 4425 
Q 1341 4750 2034 4750 
Q 2731 4750 3128 4425 
Q 3525 4100 3525 3541 
Q 3525 3141 3298 2862 
Q 3072 2584 2669 2484 
Q 3125 2378 3379 2068 
Q 3634 1759 3634 1313 
Q 3634 634 3220 271 
Q 2806 -91 2034 -91 
Q 1263 -91 848 271 
Q 434 634 434 1313 
Q 434 1759 690 2068 
Q 947 2378 1403 2484 
z
M 1172 3481 
Q 1172 3119 1398 2916 
Q 1625 2713 2034 2713 
Q 2441 2713 2670 2916 
Q 2900 3119 2900 3481 
Q 2900 3844 2670 4047 
Q 2441 4250 2034 4250 
Q 1625 4250 1398 4047 
Q 1172 3844 1172 3481 
z
" transform="scale(0.015625)"/>
       </defs>
       <use xlink:href="#DejaVuSans-38"/>
       <use xlink:href="#DejaVuSans-30" x="63.623047"/>
       <use xlink:href="#DejaVuSans-30" x="127.246094"/>
       <use xlink:href="#DejaVuSans-30" x="190.869141"/>
      </g>
     </g>
    </g>
    <g id="ytick_6">
     <g id="line2d_23">
      <g>
       <use xlink:href="#m2ab67119cd" x="57.6" y="46.493824" style="stroke: #000000; stroke-width: 0.8"/>
      </g>
     </g>
     <g id="text_24">
      <!-- 10000 -->
      <g transform="translate(18.7875 50.293043)scale(0.1 -0.1)">
       <defs>
        <path id="DejaVuSans-31" d="M 794 531 
L 1825 531 
L 1825 4091 
L 703 3866 
L 703 4441 
L 1819 4666 
L 2450 4666 
L 2450 531 
L 3481 531 
L 3481 0 
L 794 0 
L 794 531 
z
" transform="scale(0.015625)"/>
       </defs>
       <use xlink:href="#DejaVuSans-31"/>
       <use xlink:href="#DejaVuSans-30" x="63.623047"/>
       <use xlink:href="#DejaVuSans-30" x="127.246094"/>
       <use xlink:href="#DejaVuSans-30" x="190.869141"/>
       <use xlink:href="#DejaVuSans-30" x="254.492188"/>
      </g>
     </g>
    </g>
    <g id="text_25">
     <!-- средний кэшбэк -->
     <g transform="translate(12.707812 217.529562)rotate(-90)scale(0.1 -0.1)">
      <defs>
       <path id="DejaVuSans-441" d="M 3122 3366 
L 3122 2828 
Q 2878 2963 2633 3030 
Q 2388 3097 2138 3097 
Q 1578 3097 1268 2742 
Q 959 2388 959 1747 
Q 959 1106 1268 751 
Q 1578 397 2138 397 
Q 2388 397 2633 464 
Q 2878 531 3122 666 
L 3122 134 
Q 2881 22 2623 -34 
Q 2366 -91 2075 -91 
Q 1284 -91 818 406 
Q 353 903 353 1747 
Q 353 2603 823 3093 
Q 1294 3584 2113 3584 
Q 2378 3584 2631 3529 
Q 2884 3475 3122 3366 
z
" transform="scale(0.015625)"/>
       <path id="DejaVuSans-434" d="M 1384 459 
L 3053 459 
L 3053 3041 
L 1844 3041 
L 1844 2603 
Q 1844 1316 1475 628 
L 1384 459 
z
M 550 459 
Q 834 584 959 850 
Q 1266 1509 1266 2838 
L 1266 3500 
L 3631 3500 
L 3631 459 
L 4091 459 
L 4091 -884 
L 3631 -884 
L 3631 0 
L 794 0 
L 794 -884 
L 334 -884 
L 334 459 
L 550 459 
z
" transform="scale(0.015625)"/>
       <path id="DejaVuSans-43d" d="M 581 3500 
L 1159 3500 
L 1159 2072 
L 3025 2072 
L 3025 3500 
L 3603 3500 
L 3603 0 
L 3025 0 
L 3025 1613 
L 1159 1613 
L 1159 0 
L 581 0 
L 581 3500 
z
" transform="scale(0.015625)"/>
       <path id="DejaVuSans-439" d="M 3578 3500 
L 3578 0 
L 3006 0 
L 3006 2809 
L 1319 0 
L 581 0 
L 581 3500 
L 1153 3500 
L 1153 697 
L 2838 3500 
L 3578 3500 
z
M 1102 4833 
L 1471 4833 
Q 1505 4599 1656 4481 
Q 1808 4364 2080 4364 
Q 2349 4364 2499 4480 
Q 2649 4596 2689 4833 
L 3058 4833 
Q 3027 4386 2780 4161 
Q 2533 3936 2080 3936 
Q 1627 3936 1380 4161 
Q 1133 4386 1102 4833 
z
" transform="scale(0.015625)"/>
       <path id="DejaVuSans-20" transform="scale(0.015625)"/>
       <path id="DejaVuSans-44d" d="M 353 666 
Q 847 397 1338 397 
Q 1797 397 2125 664 
Q 2453 931 2513 1613 
L 738 1613 
L 738 2072 
L 2494 2072 
Q 2456 2400 2207 2748 
Q 1959 3097 1338 3097 
Q 856 3097 353 2828 
L 353 3366 
Q 844 3584 1363 3584 
Q 2181 3584 2651 3089 
Q 3122 2594 3122 1747 
Q 3122 903 2664 406 
Q 2206 -91 1403 -91 
Q 813 -91 353 134 
L 353 666 
z
" transform="scale(0.015625)"/>
       <path id="DejaVuSans-448" d="M 3216 459 
L 4697 459 
L 4697 3500 
L 5275 3500 
L 5275 0 
L 581 0 
L 581 3500 
L 1159 3500 
L 1159 459 
L 2638 459 
L 2638 3500 
L 3216 3500 
L 3216 459 
z
" transform="scale(0.015625)"/>
       <path id="DejaVuSans-431" d="M 1991 3584 
Q 2741 3584 3169 3096 
Q 3597 2609 3597 1747 
Q 3597 888 3169 398 
Q 2741 -91 1991 -91 
Q 1238 -91 822 384 
Q 406 859 384 1747 
L 366 2463 
Q 350 2834 350 2963 
Q 350 3463 531 3831 
Q 816 4409 1308 4659 
Q 1800 4909 2625 4916 
Q 3006 4919 3175 4972 
L 3334 4516 
Q 3181 4453 3041 4450 
L 2259 4397 
Q 1866 4369 1628 4231 
Q 1006 3866 947 3388 
L 925 3213 
Q 1331 3584 1991 3584 
z
M 1991 3097 
Q 1528 3097 1259 2736 
Q 991 2375 991 1747 
Q 991 1119 1258 758 
Q 1525 397 1991 397 
Q 2450 397 2719 759 
Q 2988 1122 2988 1747 
Q 2988 2369 2719 2733 
Q 2450 3097 1991 3097 
z
" transform="scale(0.015625)"/>
      </defs>
      <use xlink:href="#DejaVuSans-441"/>
      <use xlink:href="#DejaVuSans-440" x="54.980469"/>
      <use xlink:href="#DejaVuSans-435" x="118.457031"/>
      <use xlink:href="#DejaVuSans-434" x="179.980469"/>
      <use xlink:href="#DejaVuSans-43d" x="249.121094"/>
      <use xlink:href="#DejaVuSans-438" x="314.501953"/>
      <use xlink:href="#DejaVuSans-439" x="379.492188"/>
      <use xlink:href="#DejaVuSans-20" x="444.482422"/>
      <use xlink:href="#DejaVuSans-43a" x="476.269531"/>
      <use xlink:href="#DejaVuSans-44d" x="536.669922"/>
      <use xlink:href="#DejaVuSans-448" x="591.552734"/>
      <use xlink:href="#DejaVuSans-431" x="683.056641"/>
      <use xlink:href="#DejaVuSans-44d" x="744.726562"/>
      <use xlink:href="#DejaVuSans-43a" x="799.609375"/>
     </g>
    </g>
   </g>
   <g id="patch_20">
    <path d="M 57.6 307.584 
L 57.6 41.472 
" style="fill: none; stroke: #000000; stroke-width: 0.8; stroke-linejoin: miter; stroke-linecap: square"/>
   </g>
   <g id="patch_21">
    <path d="M 414.72 307.584 
L 414.72 41.472 
" style="fill: none; stroke: #000000; stroke-width: 0.8; stroke-linejoin: miter; stroke-linecap: square"/>
   </g>
   <g id="patch_22">
    <path d="M 57.6 307.584 
L 414.72 307.584 
" style="fill: none; stroke: #000000; stroke-width: 0.8; stroke-linejoin: miter; stroke-linecap: square"/>
   </g>
   <g id="patch_23">
    <path d="M 57.6 41.472 
L 414.72 41.472 
" style="fill: none; stroke: #000000; stroke-width: 0.8; stroke-linejoin: miter; stroke-linecap: square"/>
   </g>
   <g id="text_26">
    <!-- Средний кэшбэк по категориям -->
    <g transform="translate(135.104062 35.472)scale(0.12 -0.12)">
     <defs>
      <path id="DejaVuSans-421" d="M 4122 4306 
L 4122 3641 
Q 3803 3938 3442 4084 
Q 3081 4231 2675 4231 
Q 1875 4231 1450 3742 
Q 1025 3253 1025 2328 
Q 1025 1406 1450 917 
Q 1875 428 2675 428 
Q 3081 428 3442 575 
Q 3803 722 4122 1019 
L 4122 359 
Q 3791 134 3420 21 
Q 3050 -91 2638 -91 
Q 1578 -91 968 557 
Q 359 1206 359 2328 
Q 359 3453 968 4101 
Q 1578 4750 2638 4750 
Q 3056 4750 3426 4639 
Q 3797 4528 4122 4306 
z
" transform="scale(0.015625)"/>
      <path id="DejaVuSans-43f" d="M 3603 3500 
L 3603 0 
L 3025 0 
L 3025 3041 
L 1159 3041 
L 1159 0 
L 581 0 
L 581 3500 
L 3603 3500 
z
" transform="scale(0.015625)"/>
      <path id="DejaVuSans-44f" d="M 1181 2491 
Q 1181 2231 1381 2084 
Q 1581 1938 1953 1938 
L 2728 1938 
L 2728 3041 
L 1953 3041 
Q 1581 3041 1381 2897 
Q 1181 2753 1181 2491 
z
M 363 0 
L 1431 1534 
Q 1069 1616 828 1830 
Q 588 2044 588 2491 
Q 588 2997 923 3248 
Q 1259 3500 1938 3500 
L 3306 3500 
L 3306 0 
L 2728 0 
L 2728 1478 
L 2013 1478 
L 981 0 
L 363 0 
z
" transform="scale(0.015625)"/>
      <path id="DejaVuSans-43c" d="M 581 3500 
L 1422 3500 
L 2416 1156 
L 3413 3500 
L 4247 3500 
L 4247 0 
L 3669 0 
L 3669 2950 
L 2703 672 
L 2128 672 
L 1159 2950 
L 1159 0 
L 581 0 
L 581 3500 
z
" transform="scale(0.015625)"/>
     </defs>
     <use xlink:href="#DejaVuSans-421"/>
     <use xlink:href="#DejaVuSans-440" x="69.824219"/>
     <use xlink:href="#DejaVuSans-435" x="133.300781"/>
     <use xlink:href="#DejaVuSans-434" x="194.824219"/>
     <use xlink:href="#DejaVuSans-43d" x="263.964844"/>
     <use xlink:href="#DejaVuSans-438" x="329.345703"/>
     <use xlink:href="#DejaVuSans-439" x="394.335938"/>
     <use xlink:href="#DejaVuSans-20" x="459.326172"/>
     <use xlink:href="#DejaVuSans-43a" x="491.113281"/>
     <use xlink:href="#DejaVuSans-44d" x="551.513672"/>
     <use xlink:href="#DejaVuSans-448" x="606.396484"/>
     <use xlink:href="#DejaVuSans-431" x="697.900391"/>
     <use xlink:href="#DejaVuSans-44d" x="759.570312"/>
     <use xlink:href="#DejaVuSans-43a" x="814.453125"/>
     <use xlink:href="#DejaVuSans-20" x="874.853516"/>
     <use xlink:href="#DejaVuSans-43f" x="906.640625"/>
     <use xlink:href="#DejaVuSans-43e" x="972.021484"/>
     <use xlink:href="#DejaVuSans-20" x="1033.203125"/>
     <use xlink:href="#DejaVuSans-43a" x="1064.990234"/>
     <use xlink:href="#DejaVuSans-430" x="1125.390625"/>
     <use xlink:href="#DejaVuSans-442" x="1186.669922"/>
     <use xlink:href="#DejaVuSans-435" x="1244.921875"/>
     <use xlink:href="#DejaVuSans-433" x="1306.445312"/>
     <use xlink:href="#DejaVuSans-43e" x="1358.984375"/>
     <use xlink:href="#DejaVuSans-440" x="1420.166016"/>
     <use xlink:href="#DejaVuSans-438" x="1483.642578"/>
     <use xlink:href="#DejaVuSans-44f" x="1548.632812"/>
     <use xlink:href="#DejaVuSans-43c" x="1608.789062"/>
    </g>
   </g>
  </g>
 </g>
 <defs>
  <clipPath id="pfecfe5be59">
   <rect x="57.6" y="41.472" width="357.12" height="266.112"/>
  </clipPath>
 </defs>
</svg>
