<?xml version="1.0" encoding="utf-8" standalone="no"?>
<!DOCTYPE svg PUBLIC "-//W3C//DTD SVG 1.1//EN"
  "http://www.w3.org/Graphics/SVG/1.1/DTD/svg11.dtd">
<svg xmlns:xlink="http://www.w3.org/1999/xlink" width="460.8pt" height="345.6pt" viewBox="0 0 460.8 345.6" xmlns="http://www.w3.org/2000/svg" version="1.1">
 <metadata>
  <rdf:RDF xmlns:dc="http://purl.org/dc/elements/1.1/" xmlns:cc="http://creativecommons.org/ns#" xmlns:rdf="http://www.w3.org/1999/02/22-rdf-syntax-ns#">
   <cc:Work>
    <dc:type rdf:resource="http://purl.org/dc/dcmitype/StillImage"/>
    <dc:date>2023-12-19T02:06:26.536118</dc:date>
    <dc:format>image/svg+xml</dc:format>
    <dc:creator>
     <cc:Agent>
      <dc:title>Matplotlib v3.5.3, https://matplotlib.org/</dc:title>
     </cc:Agent>
    </dc:creator>
   </cc:Work>
  </rdf:RDF>
 </metadata>
 <defs>
  <style type="text/css">*{stroke-linejoin: round; stroke-linecap: butt}</style>
 </defs>
 <g id="figure_1">
  <g id="patch_1">
   <path d="M 0 345.6 
L 460.8 345.6 
L 460.8 0 
L 0 0 
z
"/>
  </g>
  <g id="axes_1">
   <g id="patch_2">
    <path d="M 57.6 307.584 
L 414.72 307.584 
L 414.72 41.472 
L 57.6 41.472 
z
"/>
   </g>
   <g id="patch_3">
    <path d="M 64.467692 307.584 
L 78.203077 307.584 
L 78.203077 59.344547 
L 64.467692 59.344547 
z
" clip-path="url(#p345f384c55)" style="fill: #008000"/>
   </g>
   <g id="patch_4">
    <path d="M 91.938462 307.584 
L 105.673846 307.584 
L 105.673846 92.512482 
L 91.938462 92.512482 
z
" clip-path="url(#p345f384c55)" style="fill: #008000"/>
   </g>
   <g id="patch_5">
    <path d="M 119.409231 307.584 
L 133.144615 307.584 
L 133.144615 117.995163 
L 119.409231 117.995163 
z
" clip-path="url(#p345f384c55)" style="fill: #008000"/>
   </g>
   <g id="patch_6">
    <path d="M 146.88 307.584 
L 160.615385 307.584 
L 160.615385 220.503726 
L 146.88 220.503726 
z
" clip-path="url(#p345f384c55)" style="fill: #008000"/>
   </g>
   <g id="patch_7">
    <path d="M 174.350769 307.584 
L 188.086154 307.584 
L 188.086154 235.700881 
L 174.350769 235.700881 
z
" clip-path="url(#p345f384c55)" style="fill: #008000"/>
   </g>
   <g id="patch_8">
    <path d="M 201.821538 307.584 
L 215.556923 307.584 
L 215.556923 238.243371 
L 201.821538 238.243371 
z
" clip-path="url(#p345f384c55)" style="fill: #008000"/>
   </g>
   <g id="patch_9">
    <path d="M 229.292308 307.584 
L 243.027692 307.584 
L 243.027692 188.722605 
L 229.292308 188.722605 
z
" clip-path="url(#p345f384c55)" style="fill: #008000"/>
   </g>
   <g id="patch_10">
    <path d="M 256.763077 307.584 
L 270.498462 307.584 
L 270.498462 130.245341 
L 256.763077 130.245341 
z
" clip-path="url(#p345f384c55)" style="fill: #008000"/>
   </g>
   <g id="patch_11">
    <path d="M 284.233846 307.584 
L 297.969231 307.584 
L 297.969231 267.482003 
L 284.233846 267.482003 
z
" clip-path="url(#p345f384c55)" style="fill: #008000"/>
   </g>
   <g id="patch_12">
    <path d="M 311.704615 307.584 
L 325.44 307.584 
L 325.44 282.621373 
L 311.704615 282.621373 
z
" clip-path="url(#p345f384c55)" style="fill: #008000"/>
   </g>
   <g id="patch_13">
    <path d="M 339.175385 307.584 
L 352.910769 307.584 
L 352.910769 252.920471 
L 339.175385 252.920471 
z
" clip-path="url(#p345f384c55)" style="fill: #008000"/>
   </g>
   <g id="patch_14">
    <path d="M 366.646154 307.584 
L 380.381538 307.584 
L 380.381538 258.00545 
L 366.646154 258.00545 
z
" clip-path="url(#p345f384c55)" style="fill: #008000"/>
   </g>
   <g id="patch_15">
    <path d="M 394.116923 307.584 
L 407.852308 307.584 
L 407.852308 258.294369 
L 394.116923 258.294369 
z
" clip-path="url(#p345f384c55)" style="fill: #008000"/>
   </g>
   <g id="patch_16">
    <path d="M 64.467692 59.344547 
L 78.203077 59.344547 
L 78.203077 54.144 
L 64.467692 54.144 
z
" clip-path="url(#p345f384c55)" style="fill: #ff0000"/>
   </g>
   <g id="patch_17">
    <path d="M 91.938462 92.512482 
L 105.673846 92.512482 
L 105.673846 86.79188 
L 91.938462 86.79188 
z
" clip-path="url(#p345f384c55)" style="fill: #ff0000"/>
   </g>
   <g id="patch_18">
    <path d="M 119.409231 117.995163 
L 133.144615 117.995163 
L 133.144615 112.447912 
L 119.409231 112.447912 
z
" clip-path="url(#p345f384c55)" style="fill: #ff0000"/>
   </g>
   <g id="patch_19">
    <path d="M 146.88 220.503726 
L 160.615385 220.503726 
L 160.615385 210.564903 
L 146.88 210.564903 
z
" clip-path="url(#p345f384c55)" style="fill: #ff0000"/>
   </g>
   <g id="patch_20">
    <path d="M 174.350769 235.700881 
L 188.086154 235.700881 
L 188.086154 227.033302 
L 174.350769 227.033302 
z
" clip-path="url(#p345f384c55)" style="fill: #ff0000"/>
   </g>
   <g id="patch_21">
    <path d="M 201.821538 238.243371 
L 215.556923 238.243371 
L 215.556923 231.598227 
L 201.821538 231.598227 
z
" clip-path="url(#p345f384c55)" style="fill: #ff0000"/>
   </g>
   <g id="patch_22">
    <path d="M 229.292308 188.722605 
L 243.027692 188.722605 
L 243.027692 176.992482 
L 229.292308 176.992482 
z
" clip-path="url(#p345f384c55)" style="fill: #ff0000"/>
   </g>
   <g id="patch_23">
    <path d="M 256.763077 130.245341 
L 270.498462 130.245341 
L 270.498462 123.137926 
L 256.763077 123.137926 
z
" clip-path="url(#p345f384c55)" style="fill: #ff0000"/>
   </g>
   <g id="patch_24">
    <path d="M 284.233846 267.482003 
L 297.969231 267.482003 
L 297.969231 261.992536 
L 284.233846 261.992536 
z
" clip-path="url(#p345f384c55)" style="fill: #ff0000"/>
   </g>
   <g id="patch_25">
    <path d="M 311.704615 282.621373 
L 325.44 282.621373 
L 325.44 279.501045 
L 311.704615 279.501045 
z
" clip-path="url(#p345f384c55)" style="fill: #ff0000"/>
   </g>
   <g id="patch_26">
    <path d="M 339.175385 252.920471 
L 352.910769 252.920471 
L 352.910769 249.569007 
L 339.175385 249.569007 
z
" clip-path="url(#p345f384c55)" style="fill: #ff0000"/>
   </g>
   <g id="patch_27">
    <path d="M 366.646154 258.00545 
L 380.381538 258.00545 
L 380.381538 256.50307 
L 366.646154 256.50307 
z
" clip-path="url(#p345f384c55)" style="fill: #ff0000"/>
   </g>
   <g id="patch_28">
    <path d="M 394.116923 258.294369 
L 407.852308 258.294369 
L 407.852308 255.116257 
L 394.116923 255.116257 
z
" clip-path="url(#p345f384c55)" style="fill: #ff0000"/>
   </g>
   <g id="matplotlib.axis_1">
    <g id="xtick_1">
     <g id="line2d_1">
      <defs>
       <path id="mc275d63186" d="M 0 0 
L 0 3.5 
" style="stroke: #ffffff; stroke-width: 0.8"/>
      </defs>
      <g>
       <use xlink:href="#mc275d63186" x="71.335385" y="307.584" style="fill: #ffffff; stroke: #ffffff; stroke-width: 0.8"/>
      </g>
     </g>
     <g id="text_1">
      <!-- Аптеки -->
      <g style="fill: #ffffff" transform="translate(75.474447 371.426969)rotate(-90)scale(0.15 -0.15)">
       <defs>
        <path id="DejaVuSans-410" d="M 2188 4044 
L 1331 1722 
L 3047 1722 
L 2188 4044 
z
M 1831 4666 
L 2547 4666 
L 4325 0 
L 3669 0 
L 3244 1197 
L 1141 1197 
L 716 0 
L 50 0 
L 1831 4666 
z
" transform="scale(0.015625)"/>
        <path id="DejaVuSans-43f" d="M 3603 3500 
L 3603 0 
L 3025 0 
L 3025 3041 
L 1159 3041 
L 1159 0 
L 581 0 
L 581 3500 
L 3603 3500 
z
" transform="scale(0.015625)"/>
        <path id="DejaVuSans-442" d="M 188 3500 
L 3541 3500 
L 3541 3041 
L 2147 3041 
L 2147 0 
L 1581 0 
L 1581 3041 
L 188 3041 
L 188 3500 
z
" transform="scale(0.015625)"/>
        <path id="DejaVuSans-435" d="M 3597 1894 
L 3597 1613 
L 953 1613 
Q 991 1019 1311 708 
Q 1631 397 2203 397 
Q 2534 397 2845 478 
Q 3156 559 3463 722 
L 3463 178 
Q 3153 47 2828 -22 
Q 2503 -91 2169 -91 
Q 1331 -91 842 396 
Q 353 884 353 1716 
Q 353 2575 817 3079 
Q 1281 3584 2069 3584 
Q 2775 3584 3186 3129 
Q 3597 2675 3597 1894 
z
M 3022 2063 
Q 3016 2534 2758 2815 
Q 2500 3097 2075 3097 
Q 1594 3097 1305 2825 
Q 1016 2553 972 2059 
L 3022 2063 
z
" transform="scale(0.015625)"/>
        <path id="DejaVuSans-43a" d="M 581 3500 
L 1153 3500 
L 1153 1856 
L 2775 3500 
L 3481 3500 
L 2144 2147 
L 3653 0 
L 3009 0 
L 1769 1766 
L 1153 1141 
L 1153 0 
L 581 0 
L 581 3500 
z
" transform="scale(0.015625)"/>
        <path id="DejaVuSans-438" d="M 3578 3500 
L 3578 0 
L 3006 0 
L 3006 2809 
L 1319 0 
L 581 0 
L 581 3500 
L 1153 3500 
L 1153 697 
L 2838 3500 
L 3578 3500 
z
" transform="scale(0.015625)"/>
       </defs>
       <use xlink:href="#DejaVuSans-410"/>
       <use xlink:href="#DejaVuSans-43f" x="68.408203"/>
       <use xlink:href="#DejaVuSans-442" x="133.789062"/>
       <use xlink:href="#DejaVuSans-435" x="192.041016"/>
       <use xlink:href="#DejaVuSans-43a" x="253.564453"/>
       <use xlink:href="#DejaVuSans-438" x="313.964844"/>
      </g>
     </g>
    </g>
    <g id="xtick_2">
     <g id="line2d_2">
      <g>
       <use xlink:href="#mc275d63186" x="98.806154" y="307.584" style="fill: #ffffff; stroke: #ffffff; stroke-width: 0.8"/>
      </g>
     </g>
     <g id="text_2">
      <!-- Рестораны -->
      <g style="fill: #ffffff" transform="translate(102.945216 399.385562)rotate(-90)scale(0.15 -0.15)">
       <defs>
        <path id="DejaVuSans-420" d="M 1259 4147 
L 1259 2394 
L 2053 2394 
Q 2494 2394 2734 2622 
Q 2975 2850 2975 3272 
Q 2975 3691 2734 3919 
Q 2494 4147 2053 4147 
L 1259 4147 
z
M 628 4666 
L 2053 4666 
Q 2838 4666 3239 4311 
Q 3641 3956 3641 3272 
Q 3641 2581 3239 2228 
Q 2838 1875 2053 1875 
L 1259 1875 
L 1259 0 
L 628 0 
L 628 4666 
z
" transform="scale(0.015625)"/>
        <path id="DejaVuSans-441" d="M 3122 3366 
L 3122 2828 
Q 2878 2963 2633 3030 
Q 2388 3097 2138 3097 
Q 1578 3097 1268 2742 
Q 959 2388 959 1747 
Q 959 1106 1268 751 
Q 1578 397 2138 397 
Q 2388 397 2633 464 
Q 2878 531 3122 666 
L 3122 134 
Q 2881 22 2623 -34 
Q 2366 -91 2075 -91 
Q 1284 -91 818 406 
Q 353 903 353 1747 
Q 353 2603 823 3093 
Q 1294 3584 2113 3584 
Q 2378 3584 2631 3529 
Q 2884 3475 3122 3366 
z
" transform="scale(0.015625)"/>
        <path id="DejaVuSans-43e" d="M 1959 3097 
Q 1497 3097 1228 2736 
Q 959 2375 959 1747 
Q 959 1119 1226 758 
Q 1494 397 1959 397 
Q 2419 397 2687 759 
Q 2956 1122 2956 1747 
Q 2956 2369 2687 2733 
Q 2419 3097 1959 3097 
z
M 1959 3584 
Q 2709 3584 3137 3096 
Q 3566 2609 3566 1747 
Q 3566 888 3137 398 
Q 2709 -91 1959 -91 
Q 1206 -91 779 398 
Q 353 888 353 1747 
Q 353 2609 779 3096 
Q 1206 3584 1959 3584 
z
" transform="scale(0.015625)"/>
        <path id="DejaVuSans-440" d="M 1159 525 
L 1159 -1331 
L 581 -1331 
L 581 3500 
L 1159 3500 
L 1159 2969 
Q 1341 3281 1617 3432 
Q 1894 3584 2278 3584 
Q 2916 3584 3314 3078 
Q 3713 2572 3713 1747 
Q 3713 922 3314 415 
Q 2916 -91 2278 -91 
Q 1894 -91 1617 61 
Q 1341 213 1159 525 
z
M 3116 1747 
Q 3116 2381 2855 2742 
Q 2594 3103 2138 3103 
Q 1681 3103 1420 2742 
Q 1159 2381 1159 1747 
Q 1159 1113 1420 752 
Q 1681 391 2138 391 
Q 2594 391 2855 752 
Q 3116 1113 3116 1747 
z
" transform="scale(0.015625)"/>
        <path id="DejaVuSans-430" d="M 2194 1759 
Q 1497 1759 1228 1600 
Q 959 1441 959 1056 
Q 959 750 1161 570 
Q 1363 391 1709 391 
Q 2188 391 2477 730 
Q 2766 1069 2766 1631 
L 2766 1759 
L 2194 1759 
z
M 3341 1997 
L 3341 0 
L 2766 0 
L 2766 531 
Q 2569 213 2275 61 
Q 1981 -91 1556 -91 
Q 1019 -91 701 211 
Q 384 513 384 1019 
Q 384 1609 779 1909 
Q 1175 2209 1959 2209 
L 2766 2209 
L 2766 2266 
Q 2766 2663 2505 2880 
Q 2244 3097 1772 3097 
Q 1472 3097 1187 3025 
Q 903 2953 641 2809 
L 641 3341 
Q 956 3463 1253 3523 
Q 1550 3584 1831 3584 
Q 2591 3584 2966 3190 
Q 3341 2797 3341 1997 
z
" transform="scale(0.015625)"/>
        <path id="DejaVuSans-43d" d="M 581 3500 
L 1159 3500 
L 1159 2072 
L 3025 2072 
L 3025 3500 
L 3603 3500 
L 3603 0 
L 3025 0 
L 3025 1613 
L 1159 1613 
L 1159 0 
L 581 0 
L 581 3500 
z
" transform="scale(0.015625)"/>
        <path id="DejaVuSans-44b" d="M 3907 3500 
L 4482 3500 
L 4482 0 
L 3907 0 
L 3907 3500 
z
M 4195 3584 
L 4195 3584 
z
M 2781 1038 
Q 2781 1319 2576 1466 
Q 2372 1613 1978 1613 
L 1159 1613 
L 1159 459 
L 1978 459 
Q 2372 459 2576 607 
Q 2781 756 2781 1038 
z
M 581 3500 
L 1159 3500 
L 1159 2072 
L 2003 2072 
Q 2672 2072 3033 1817 
Q 3394 1563 3394 1038 
Q 3394 513 3033 256 
Q 2672 0 2003 0 
L 581 0 
L 581 3500 
z
" transform="scale(0.015625)"/>
       </defs>
       <use xlink:href="#DejaVuSans-420"/>
       <use xlink:href="#DejaVuSans-435" x="60.302734"/>
       <use xlink:href="#DejaVuSans-441" x="121.826172"/>
       <use xlink:href="#DejaVuSans-442" x="176.806641"/>
       <use xlink:href="#DejaVuSans-43e" x="235.058594"/>
       <use xlink:href="#DejaVuSans-440" x="296.240234"/>
       <use xlink:href="#DejaVuSans-430" x="359.716797"/>
       <use xlink:href="#DejaVuSans-43d" x="420.996094"/>
       <use xlink:href="#DejaVuSans-44b" x="486.376953"/>
      </g>
     </g>
    </g>
    <g id="xtick_3">
     <g id="line2d_3">
      <g>
       <use xlink:href="#mc275d63186" x="126.276923" y="307.584" style="fill: #ffffff; stroke: #ffffff; stroke-width: 0.8"/>
      </g>
     </g>
     <g id="text_3">
      <!-- Одежда и обувь -->
      <g style="fill: #ffffff" transform="translate(130.54372 443.34025)rotate(-90)scale(0.15 -0.15)">
       <defs>
        <path id="DejaVuSans-41e" d="M 2522 4238 
Q 1834 4238 1429 3725 
Q 1025 3213 1025 2328 
Q 1025 1447 1429 934 
Q 1834 422 2522 422 
Q 3209 422 3611 934 
Q 4013 1447 4013 2328 
Q 4013 3213 3611 3725 
Q 3209 4238 2522 4238 
z
M 2522 4750 
Q 3503 4750 4090 4092 
Q 4678 3434 4678 2328 
Q 4678 1225 4090 567 
Q 3503 -91 2522 -91 
Q 1538 -91 948 565 
Q 359 1222 359 2328 
Q 359 3434 948 4092 
Q 1538 4750 2522 4750 
z
" transform="scale(0.015625)"/>
        <path id="DejaVuSans-434" d="M 1384 459 
L 3053 459 
L 3053 3041 
L 1844 3041 
L 1844 2603 
Q 1844 1316 1475 628 
L 1384 459 
z
M 550 459 
Q 834 584 959 850 
Q 1266 1509 1266 2838 
L 1266 3500 
L 3631 3500 
L 3631 459 
L 4091 459 
L 4091 -884 
L 3631 -884 
L 3631 0 
L 794 0 
L 794 -884 
L 334 -884 
L 334 459 
L 550 459 
z
" transform="scale(0.015625)"/>
        <path id="DejaVuSans-436" d="M 2597 3500 
L 3169 3500 
L 3169 1856 
L 4697 3500 
L 5366 3500 
L 4109 2153 
L 5547 0 
L 4931 0 
L 3753 1769 
L 3169 1141 
L 3169 0 
L 2597 0 
L 2597 1141 
L 2013 1769 
L 834 0 
L 219 0 
L 1656 2153 
L 400 3500 
L 1069 3500 
L 2597 1856 
L 2597 3500 
z
" transform="scale(0.015625)"/>
        <path id="DejaVuSans-20" transform="scale(0.015625)"/>
        <path id="DejaVuSans-431" d="M 1991 3584 
Q 2741 3584 3169 3096 
Q 3597 2609 3597 1747 
Q 3597 888 3169 398 
Q 2741 -91 1991 -91 
Q 1238 -91 822 384 
Q 406 859 384 1747 
L 366 2463 
Q 350 2834 350 2963 
Q 350 3463 531 3831 
Q 816 4409 1308 4659 
Q 1800 4909 2625 4916 
Q 3006 4919 3175 4972 
L 3334 4516 
Q 3181 4453 3041 4450 
L 2259 4397 
Q 1866 4369 1628 4231 
Q 1006 3866 947 3388 
L 925 3213 
Q 1331 3584 1991 3584 
z
M 1991 3097 
Q 1528 3097 1259 2736 
Q 991 2375 991 1747 
Q 991 1119 1258 758 
Q 1525 397 1991 397 
Q 2450 397 2719 759 
Q 2988 1122 2988 1747 
Q 2988 2369 2719 2733 
Q 2450 3097 1991 3097 
z
" transform="scale(0.015625)"/>
        <path id="DejaVuSans-443" d="M 2059 -325 
Q 1816 -950 1584 -1140 
Q 1353 -1331 966 -1331 
L 506 -1331 
L 506 -850 
L 844 -850 
Q 1081 -850 1212 -737 
Q 1344 -625 1503 -206 
L 1606 56 
L 191 3500 
L 800 3500 
L 1894 763 
L 2988 3500 
L 3597 3500 
L 2059 -325 
z
" transform="scale(0.015625)"/>
        <path id="DejaVuSans-432" d="M 1156 1613 
L 1156 459 
L 1975 459 
Q 2369 459 2575 607 
Q 2781 756 2781 1038 
Q 2781 1319 2575 1466 
Q 2369 1613 1975 1613 
L 1156 1613 
z
M 1156 3041 
L 1156 2072 
L 1913 2072 
Q 2238 2072 2444 2201 
Q 2650 2331 2650 2563 
Q 2650 2794 2444 2917 
Q 2238 3041 1913 3041 
L 1156 3041 
z
M 581 3500 
L 1950 3500 
Q 2566 3500 2897 3275 
Q 3228 3050 3228 2634 
Q 3228 2313 3059 2123 
Q 2891 1934 2559 1888 
Q 2956 1813 3175 1575 
Q 3394 1338 3394 981 
Q 3394 513 3033 256 
Q 2672 0 2003 0 
L 581 0 
L 581 3500 
z
" transform="scale(0.015625)"/>
        <path id="DejaVuSans-44c" d="M 2781 1038 
Q 2781 1319 2576 1466 
Q 2372 1613 1978 1613 
L 1159 1613 
L 1159 459 
L 1978 459 
Q 2372 459 2576 607 
Q 2781 756 2781 1038 
z
M 581 3500 
L 1159 3500 
L 1159 2072 
L 2003 2072 
Q 2672 2072 3033 1817 
Q 3394 1563 3394 1038 
Q 3394 513 3033 256 
Q 2672 0 2003 0 
L 581 0 
L 581 3500 
z
" transform="scale(0.015625)"/>
       </defs>
       <use xlink:href="#DejaVuSans-41e"/>
       <use xlink:href="#DejaVuSans-434" x="78.710938"/>
       <use xlink:href="#DejaVuSans-435" x="147.851562"/>
       <use xlink:href="#DejaVuSans-436" x="209.375"/>
       <use xlink:href="#DejaVuSans-434" x="299.462891"/>
       <use xlink:href="#DejaVuSans-430" x="368.603516"/>
       <use xlink:href="#DejaVuSans-20" x="429.882812"/>
       <use xlink:href="#DejaVuSans-438" x="461.669922"/>
       <use xlink:href="#DejaVuSans-20" x="526.660156"/>
       <use xlink:href="#DejaVuSans-43e" x="558.447266"/>
       <use xlink:href="#DejaVuSans-431" x="619.628906"/>
       <use xlink:href="#DejaVuSans-443" x="681.298828"/>
       <use xlink:href="#DejaVuSans-432" x="740.478516"/>
       <use xlink:href="#DejaVuSans-44c" x="799.414062"/>
      </g>
     </g>
    </g>
    <g id="xtick_4">
     <g id="line2d_4">
      <g>
       <use xlink:href="#mc275d63186" x="153.747692" y="307.584" style="fill: #ffffff; stroke: #ffffff; stroke-width: 0.8"/>
      </g>
     </g>
     <g id="text_4">
      <!-- Автосервис -->
      <g style="fill: #ffffff" transform="translate(157.886755 405.437125)rotate(-90)scale(0.15 -0.15)">
       <use xlink:href="#DejaVuSans-410"/>
       <use xlink:href="#DejaVuSans-432" x="68.408203"/>
       <use xlink:href="#DejaVuSans-442" x="127.34375"/>
       <use xlink:href="#DejaVuSans-43e" x="185.595703"/>
       <use xlink:href="#DejaVuSans-441" x="246.777344"/>
       <use xlink:href="#DejaVuSans-435" x="301.757812"/>
       <use xlink:href="#DejaVuSans-440" x="363.28125"/>
       <use xlink:href="#DejaVuSans-432" x="426.757812"/>
       <use xlink:href="#DejaVuSans-438" x="485.693359"/>
       <use xlink:href="#DejaVuSans-441" x="550.683594"/>
      </g>
     </g>
    </g>
    <g id="xtick_5">
     <g id="line2d_5">
      <g>
       <use xlink:href="#mc275d63186" x="181.218462" y="307.584" style="fill: #ffffff; stroke: #ffffff; stroke-width: 0.8"/>
      </g>
     </g>
     <g id="text_5">
      <!-- Супермаркеты -->
      <g style="fill: #ffffff" transform="translate(185.357524 431.3965)rotate(-90)scale(0.15 -0.15)">
       <defs>
        <path id="DejaVuSans-421" d="M 4122 4306 
L 4122 3641 
Q 3803 3938 3442 4084 
Q 3081 4231 2675 4231 
Q 1875 4231 1450 3742 
Q 1025 3253 1025 2328 
Q 1025 1406 1450 917 
Q 1875 428 2675 428 
Q 3081 428 3442 575 
Q 3803 722 4122 1019 
L 4122 359 
Q 3791 134 3420 21 
Q 3050 -91 2638 -91 
Q 1578 -91 968 557 
Q 359 1206 359 2328 
Q 359 3453 968 4101 
Q 1578 4750 2638 4750 
Q 3056 4750 3426 4639 
Q 3797 4528 4122 4306 
z
" transform="scale(0.015625)"/>
        <path id="DejaVuSans-43c" d="M 581 3500 
L 1422 3500 
L 2416 1156 
L 3413 3500 
L 4247 3500 
L 4247 0 
L 3669 0 
L 3669 2950 
L 2703 672 
L 2128 672 
L 1159 2950 
L 1159 0 
L 581 0 
L 581 3500 
z
" transform="scale(0.015625)"/>
       </defs>
       <use xlink:href="#DejaVuSans-421"/>
       <use xlink:href="#DejaVuSans-443" x="69.824219"/>
       <use xlink:href="#DejaVuSans-43f" x="129.003906"/>
       <use xlink:href="#DejaVuSans-435" x="194.384766"/>
       <use xlink:href="#DejaVuSans-440" x="255.908203"/>
       <use xlink:href="#DejaVuSans-43c" x="319.384766"/>
       <use xlink:href="#DejaVuSans-430" x="394.824219"/>
       <use xlink:href="#DejaVuSans-440" x="456.103516"/>
       <use xlink:href="#DejaVuSans-43a" x="519.580078"/>
       <use xlink:href="#DejaVuSans-435" x="579.980469"/>
       <use xlink:href="#DejaVuSans-442" x="641.503906"/>
       <use xlink:href="#DejaVuSans-44b" x="699.755859"/>
      </g>
     </g>
    </g>
    <g id="xtick_6">
     <g id="line2d_6">
      <g>
       <use xlink:href="#mc275d63186" x="208.689231" y="307.584" style="fill: #ffffff; stroke: #ffffff; stroke-width: 0.8"/>
      </g>
     </g>
     <g id="text_6">
      <!-- Такси -->
      <g style="fill: #ffffff" transform="translate(212.828293 359.994156)rotate(-90)scale(0.15 -0.15)">
       <defs>
        <path id="DejaVuSans-422" d="M -19 4666 
L 3928 4666 
L 3928 4134 
L 2272 4134 
L 2272 0 
L 1638 0 
L 1638 4134 
L -19 4134 
L -19 4666 
z
" transform="scale(0.015625)"/>
       </defs>
       <use xlink:href="#DejaVuSans-422"/>
       <use xlink:href="#DejaVuSans-430" x="61.083984"/>
       <use xlink:href="#DejaVuSans-43a" x="122.363281"/>
       <use xlink:href="#DejaVuSans-441" x="182.763672"/>
       <use xlink:href="#DejaVuSans-438" x="237.744141"/>
      </g>
     </g>
    </g>
    <g id="xtick_7">
     <g id="line2d_7">
      <g>
       <use xlink:href="#mc275d63186" x="236.16" y="307.584" style="fill: #ffffff; stroke: #ffffff; stroke-width: 0.8"/>
      </g>
     </g>
     <g id="text_7">
      <!-- Красота -->
      <g style="fill: #ffffff" transform="translate(240.299062 379.304312)rotate(-90)scale(0.15 -0.15)">
       <defs>
        <path id="DejaVuSans-41a" d="M 628 4666 
L 1259 4666 
L 1259 2359 
L 3516 4666 
L 4325 4666 
L 2522 2822 
L 4419 0 
L 3731 0 
L 2113 2403 
L 1259 1531 
L 1259 0 
L 628 0 
L 628 4666 
z
" transform="scale(0.015625)"/>
       </defs>
       <use xlink:href="#DejaVuSans-41a"/>
       <use xlink:href="#DejaVuSans-440" x="70.996094"/>
       <use xlink:href="#DejaVuSans-430" x="134.472656"/>
       <use xlink:href="#DejaVuSans-441" x="195.751953"/>
       <use xlink:href="#DejaVuSans-43e" x="250.732422"/>
       <use xlink:href="#DejaVuSans-442" x="311.914062"/>
       <use xlink:href="#DejaVuSans-430" x="370.166016"/>
      </g>
     </g>
    </g>
    <g id="xtick_8">
     <g id="line2d_8">
      <g>
       <use xlink:href="#mc275d63186" x="263.630769" y="307.584" style="fill: #ffffff; stroke: #ffffff; stroke-width: 0.8"/>
      </g>
     </g>
     <g id="text_8">
      <!-- Развлечения -->
      <g style="fill: #ffffff" transform="translate(267.769832 415.123844)rotate(-90)scale(0.15 -0.15)">
       <defs>
        <path id="DejaVuSans-437" d="M 2206 1888 
Q 2594 1813 2809 1584 
Q 3025 1356 3025 1019 
Q 3025 478 2622 193 
Q 2219 -91 1475 -91 
Q 1225 -91 961 -47 
Q 697 -3 416 84 
L 416 619 
Q 638 503 903 445 
Q 1169 388 1459 388 
Q 1931 388 2195 563 
Q 2459 738 2459 1019 
Q 2459 1294 2225 1461 
Q 1991 1628 1563 1628 
L 1100 1628 
L 1100 2103 
L 1584 2103 
Q 1947 2103 2158 2242 
Q 2369 2381 2369 2600 
Q 2369 2800 2151 2944 
Q 1934 3088 1563 3088 
Q 1341 3088 1089 3047 
Q 838 3006 534 2916 
L 534 3438 
Q 841 3513 1106 3550 
Q 1372 3588 1609 3588 
Q 2222 3588 2576 3342 
Q 2931 3097 2931 2656 
Q 2931 2366 2743 2164 
Q 2556 1963 2206 1888 
z
" transform="scale(0.015625)"/>
        <path id="DejaVuSans-43b" d="M 238 0 
L 238 478 
Q 806 566 981 959 
Q 1194 1513 1194 2928 
L 1194 3500 
L 3559 3500 
L 3559 0 
L 2984 0 
L 2984 3041 
L 1769 3041 
L 1769 2694 
Q 1769 1344 1494 738 
Q 1200 91 238 0 
z
" transform="scale(0.015625)"/>
        <path id="DejaVuSans-447" d="M 2625 0 
L 2625 1472 
L 1553 1472 
Q 1075 1472 756 1769 
Q 469 2038 469 2613 
L 469 3500 
L 1044 3500 
L 1044 2666 
Q 1044 2300 1206 2116 
Q 1372 1931 1697 1931 
L 2625 1931 
L 2625 3500 
L 3200 3500 
L 3200 0 
L 2625 0 
z
" transform="scale(0.015625)"/>
        <path id="DejaVuSans-44f" d="M 1181 2491 
Q 1181 2231 1381 2084 
Q 1581 1938 1953 1938 
L 2728 1938 
L 2728 3041 
L 1953 3041 
Q 1581 3041 1381 2897 
Q 1181 2753 1181 2491 
z
M 363 0 
L 1431 1534 
Q 1069 1616 828 1830 
Q 588 2044 588 2491 
Q 588 2997 923 3248 
Q 1259 3500 1938 3500 
L 3306 3500 
L 3306 0 
L 2728 0 
L 2728 1478 
L 2013 1478 
L 981 0 
L 363 0 
z
" transform="scale(0.015625)"/>
       </defs>
       <use xlink:href="#DejaVuSans-420"/>
       <use xlink:href="#DejaVuSans-430" x="60.302734"/>
       <use xlink:href="#DejaVuSans-437" x="121.582031"/>
       <use xlink:href="#DejaVuSans-432" x="174.755859"/>
       <use xlink:href="#DejaVuSans-43b" x="233.691406"/>
       <use xlink:href="#DejaVuSans-435" x="297.607422"/>
       <use xlink:href="#DejaVuSans-447" x="359.130859"/>
       <use xlink:href="#DejaVuSans-435" x="418.212891"/>
       <use xlink:href="#DejaVuSans-43d" x="479.736328"/>
       <use xlink:href="#DejaVuSans-438" x="545.117188"/>
       <use xlink:href="#DejaVuSans-44f" x="610.107422"/>
      </g>
     </g>
    </g>
    <g id="xtick_9">
     <g id="line2d_9">
      <g>
       <use xlink:href="#mc275d63186" x="291.101538" y="307.584" style="fill: #ffffff; stroke: #ffffff; stroke-width: 0.8"/>
      </g>
     </g>
     <g id="text_9">
      <!-- Ж/Д -->
      <g style="fill: #ffffff" transform="translate(295.240601 347.513687)rotate(-90)scale(0.15 -0.15)">
       <defs>
        <path id="DejaVuSans-416" d="M 3131 4666 
L 3763 4666 
L 3763 2359 
L 5894 4666 
L 6659 4666 
L 4956 2825 
L 6769 0 
L 6109 0 
L 4569 2403 
L 3763 1531 
L 3763 0 
L 3131 0 
L 3131 1531 
L 2325 2403 
L 784 0 
L 125 0 
L 1938 2825 
L 234 4666 
L 1000 4666 
L 3131 2359 
L 3131 4666 
z
" transform="scale(0.015625)"/>
        <path id="DejaVuSans-2f" d="M 1625 4666 
L 2156 4666 
L 531 -594 
L 0 -594 
L 1625 4666 
z
" transform="scale(0.015625)"/>
        <path id="DejaVuSans-414" d="M 1459 531 
L 3522 531 
L 3522 4134 
L 2006 4134 
L 2006 3472 
Q 2006 1913 1656 878 
Q 1584 666 1459 531 
z
M 538 531 
Q 956 728 1075 1103 
Q 1378 2066 1378 3784 
L 1378 4666 
L 4153 4666 
L 4153 531 
L 4684 531 
L 4684 -1003 
L 4153 -1003 
L 4153 0 
L 847 0 
L 847 -1003 
L 316 -1003 
L 316 531 
L 538 531 
z
" transform="scale(0.015625)"/>
       </defs>
       <use xlink:href="#DejaVuSans-416"/>
       <use xlink:href="#DejaVuSans-2f" x="107.714844"/>
       <use xlink:href="#DejaVuSans-414" x="141.40625"/>
      </g>
     </g>
    </g>
    <g id="xtick_10">
     <g id="line2d_10">
      <g>
       <use xlink:href="#mc275d63186" x="318.572308" y="307.584" style="fill: #ffffff; stroke: #ffffff; stroke-width: 0.8"/>
      </g>
     </g>
     <g id="text_10">
      <!-- Образование -->
      <g style="fill: #ffffff" transform="translate(322.839105 418.32775)rotate(-90)scale(0.15 -0.15)">
       <use xlink:href="#DejaVuSans-41e"/>
       <use xlink:href="#DejaVuSans-431" x="78.710938"/>
       <use xlink:href="#DejaVuSans-440" x="140.380859"/>
       <use xlink:href="#DejaVuSans-430" x="203.857422"/>
       <use xlink:href="#DejaVuSans-437" x="265.136719"/>
       <use xlink:href="#DejaVuSans-43e" x="318.310547"/>
       <use xlink:href="#DejaVuSans-432" x="379.492188"/>
       <use xlink:href="#DejaVuSans-430" x="438.427734"/>
       <use xlink:href="#DejaVuSans-43d" x="499.707031"/>
       <use xlink:href="#DejaVuSans-438" x="565.087891"/>
       <use xlink:href="#DejaVuSans-435" x="630.078125"/>
      </g>
     </g>
    </g>
    <g id="xtick_11">
     <g id="line2d_11">
      <g>
       <use xlink:href="#mc275d63186" x="346.043077" y="307.584" style="fill: #ffffff; stroke: #ffffff; stroke-width: 0.8"/>
      </g>
     </g>
     <g id="text_11">
      <!-- Спорттовары -->
      <g style="fill: #ffffff" transform="translate(350.182139 419.616812)rotate(-90)scale(0.15 -0.15)">
       <use xlink:href="#DejaVuSans-421"/>
       <use xlink:href="#DejaVuSans-43f" x="69.824219"/>
       <use xlink:href="#DejaVuSans-43e" x="135.205078"/>
       <use xlink:href="#DejaVuSans-440" x="196.386719"/>
       <use xlink:href="#DejaVuSans-442" x="259.863281"/>
       <use xlink:href="#DejaVuSans-442" x="318.115234"/>
       <use xlink:href="#DejaVuSans-43e" x="376.367188"/>
       <use xlink:href="#DejaVuSans-432" x="437.548828"/>
       <use xlink:href="#DejaVuSans-430" x="496.484375"/>
       <use xlink:href="#DejaVuSans-440" x="557.763672"/>
       <use xlink:href="#DejaVuSans-44b" x="621.240234"/>
      </g>
     </g>
    </g>
    <g id="xtick_12">
     <g id="line2d_12">
      <g>
       <use xlink:href="#mc275d63186" x="373.513846" y="307.584" style="fill: #ffffff; stroke: #ffffff; stroke-width: 0.8"/>
      </g>
     </g>
     <g id="text_12">
      <!-- Животные -->
      <g style="fill: #ffffff" transform="translate(377.652909 398.124625)rotate(-90)scale(0.15 -0.15)">
       <use xlink:href="#DejaVuSans-416"/>
       <use xlink:href="#DejaVuSans-438" x="107.714844"/>
       <use xlink:href="#DejaVuSans-432" x="172.705078"/>
       <use xlink:href="#DejaVuSans-43e" x="231.640625"/>
       <use xlink:href="#DejaVuSans-442" x="292.822266"/>
       <use xlink:href="#DejaVuSans-43d" x="351.074219"/>
       <use xlink:href="#DejaVuSans-44b" x="416.455078"/>
       <use xlink:href="#DejaVuSans-435" x="495.410156"/>
      </g>
     </g>
    </g>
    <g id="xtick_13">
     <g id="line2d_13">
      <g>
       <use xlink:href="#mc275d63186" x="400.984615" y="307.584" style="fill: #ffffff; stroke: #ffffff; stroke-width: 0.8"/>
      </g>
     </g>
     <g id="text_13">
      <!-- Цветы -->
      <g style="fill: #ffffff" transform="translate(405.123678 364.880875)rotate(-90)scale(0.15 -0.15)">
       <defs>
        <path id="DejaVuSans-426" d="M 4184 0 
L 628 0 
L 628 4666 
L 1259 4666 
L 1259 531 
L 3553 531 
L 3553 4666 
L 4184 4666 
L 4184 531 
L 4716 531 
L 4716 -1003 
L 4184 -1003 
L 4184 0 
z
" transform="scale(0.015625)"/>
       </defs>
       <use xlink:href="#DejaVuSans-426"/>
       <use xlink:href="#DejaVuSans-432" x="77.636719"/>
       <use xlink:href="#DejaVuSans-435" x="136.572266"/>
       <use xlink:href="#DejaVuSans-442" x="198.095703"/>
       <use xlink:href="#DejaVuSans-44b" x="256.347656"/>
      </g>
     </g>
    </g>
   </g>
   <g id="matplotlib.axis_2">
    <g id="ytick_1">
     <g id="line2d_14">
      <defs>
       <path id="m626f9aecbd" d="M 0 0 
L -3.5 0 
" style="stroke: #ffffff; stroke-width: 0.8"/>
      </defs>
      <g>
       <use xlink:href="#m626f9aecbd" x="57.6" y="307.584" style="fill: #ffffff; stroke: #ffffff; stroke-width: 0.8"/>
      </g>
     </g>
     <g id="text_14">
      <!-- 0 -->
      <g style="fill: #ffffff" transform="translate(41.05625 313.282828)scale(0.15 -0.15)">
       <defs>
        <path id="DejaVuSans-30" d="M 2034 4250 
Q 1547 4250 1301 3770 
Q 1056 3291 1056 2328 
Q 1056 1369 1301 889 
Q 1547 409 2034 409 
Q 2525 409 2770 889 
Q 3016 1369 3016 2328 
Q 3016 3291 2770 3770 
Q 2525 4250 2034 4250 
z
M 2034 4750 
Q 2819 4750 3233 4129 
Q 3647 3509 3647 2328 
Q 3647 1150 3233 529 
Q 2819 -91 2034 -91 
Q 1250 -91 836 529 
Q 422 1150 422 2328 
Q 422 3509 836 4129 
Q 1250 4750 2034 4750 
z
" transform="scale(0.015625)"/>
       </defs>
       <use xlink:href="#DejaVuSans-30"/>
      </g>
     </g>
    </g>
    <g id="ytick_2">
     <g id="line2d_15">
      <g>
       <use xlink:href="#m626f9aecbd" x="57.6" y="249.800142" style="fill: #ffffff; stroke: #ffffff; stroke-width: 0.8"/>
      </g>
     </g>
     <g id="text_15">
      <!-- 1000 -->
      <g style="fill: #ffffff" transform="translate(12.425 255.49897)scale(0.15 -0.15)">
       <defs>
        <path id="DejaVuSans-31" d="M 794 531 
L 1825 531 
L 1825 4091 
L 703 3866 
L 703 4441 
L 1819 4666 
L 2450 4666 
L 2450 531 
L 3481 531 
L 3481 0 
L 794 0 
L 794 531 
z
" transform="scale(0.015625)"/>
       </defs>
       <use xlink:href="#DejaVuSans-31"/>
       <use xlink:href="#DejaVuSans-30" x="63.623047"/>
       <use xlink:href="#DejaVuSans-30" x="127.246094"/>
       <use xlink:href="#DejaVuSans-30" x="190.869141"/>
      </g>
     </g>
    </g>
    <g id="ytick_3">
     <g id="line2d_16">
      <g>
       <use xlink:href="#m626f9aecbd" x="57.6" y="192.016285" style="fill: #ffffff; stroke: #ffffff; stroke-width: 0.8"/>
      </g>
     </g>
     <g id="text_16">
      <!-- 2000 -->
      <g style="fill: #ffffff" transform="translate(12.425 197.715113)scale(0.15 -0.15)">
       <defs>
        <path id="DejaVuSans-32" d="M 1228 531 
L 3431 531 
L 3431 0 
L 469 0 
L 469 531 
Q 828 903 1448 1529 
Q 2069 2156 2228 2338 
Q 2531 2678 2651 2914 
Q 2772 3150 2772 3378 
Q 2772 3750 2511 3984 
Q 2250 4219 1831 4219 
Q 1534 4219 1204 4116 
Q 875 4013 500 3803 
L 500 4441 
Q 881 4594 1212 4672 
Q 1544 4750 1819 4750 
Q 2544 4750 2975 4387 
Q 3406 4025 3406 3419 
Q 3406 3131 3298 2873 
Q 3191 2616 2906 2266 
Q 2828 2175 2409 1742 
Q 1991 1309 1228 531 
z
" transform="scale(0.015625)"/>
       </defs>
       <use xlink:href="#DejaVuSans-32"/>
       <use xlink:href="#DejaVuSans-30" x="63.623047"/>
       <use xlink:href="#DejaVuSans-30" x="127.246094"/>
       <use xlink:href="#DejaVuSans-30" x="190.869141"/>
      </g>
     </g>
    </g>
    <g id="ytick_4">
     <g id="line2d_17">
      <g>
       <use xlink:href="#m626f9aecbd" x="57.6" y="134.232427" style="fill: #ffffff; stroke: #ffffff; stroke-width: 0.8"/>
      </g>
     </g>
     <g id="text_17">
      <!-- 3000 -->
      <g style="fill: #ffffff" transform="translate(12.425 139.931255)scale(0.15 -0.15)">
       <defs>
        <path id="DejaVuSans-33" d="M 2597 2516 
Q 3050 2419 3304 2112 
Q 3559 1806 3559 1356 
Q 3559 666 3084 287 
Q 2609 -91 1734 -91 
Q 1441 -91 1130 -33 
Q 819 25 488 141 
L 488 750 
Q 750 597 1062 519 
Q 1375 441 1716 441 
Q 2309 441 2620 675 
Q 2931 909 2931 1356 
Q 2931 1769 2642 2001 
Q 2353 2234 1838 2234 
L 1294 2234 
L 1294 2753 
L 1863 2753 
Q 2328 2753 2575 2939 
Q 2822 3125 2822 3475 
Q 2822 3834 2567 4026 
Q 2313 4219 1838 4219 
Q 1578 4219 1281 4162 
Q 984 4106 628 3988 
L 628 4550 
Q 988 4650 1302 4700 
Q 1616 4750 1894 4750 
Q 2613 4750 3031 4423 
Q 3450 4097 3450 3541 
Q 3450 3153 3228 2886 
Q 3006 2619 2597 2516 
z
" transform="scale(0.015625)"/>
       </defs>
       <use xlink:href="#DejaVuSans-33"/>
       <use xlink:href="#DejaVuSans-30" x="63.623047"/>
       <use xlink:href="#DejaVuSans-30" x="127.246094"/>
       <use xlink:href="#DejaVuSans-30" x="190.869141"/>
      </g>
     </g>
    </g>
    <g id="ytick_5">
     <g id="line2d_18">
      <g>
       <use xlink:href="#m626f9aecbd" x="57.6" y="76.448569" style="fill: #ffffff; stroke: #ffffff; stroke-width: 0.8"/>
      </g>
     </g>
     <g id="text_18">
      <!-- 4000 -->
      <g style="fill: #ffffff" transform="translate(12.425 82.147397)scale(0.15 -0.15)">
       <defs>
        <path id="DejaVuSans-34" d="M 2419 4116 
L 825 1625 
L 2419 1625 
L 2419 4116 
z
M 2253 4666 
L 3047 4666 
L 3047 1625 
L 3713 1625 
L 3713 1100 
L 3047 1100 
L 3047 0 
L 2419 0 
L 2419 1100 
L 313 1100 
L 313 1709 
L 2253 4666 
z
" transform="scale(0.015625)"/>
       </defs>
       <use xlink:href="#DejaVuSans-34"/>
       <use xlink:href="#DejaVuSans-30" x="63.623047"/>
       <use xlink:href="#DejaVuSans-30" x="127.246094"/>
       <use xlink:href="#DejaVuSans-30" x="190.869141"/>
      </g>
     </g>
    </g>
   </g>
   <g id="patch_29">
    <path d="M 57.6 307.584 
L 57.6 41.472 
" style="fill: none; stroke: #ffffff; stroke-width: 0.8; stroke-linejoin: miter; stroke-linecap: square"/>
   </g>
   <g id="patch_30">
    <path d="M 414.72 307.584 
L 414.72 41.472 
" style="fill: none; stroke: #ffffff; stroke-width: 0.8; stroke-linejoin: miter; stroke-linecap: square"/>
   </g>
   <g id="patch_31">
    <path d="M 57.6 307.584 
L 414.72 307.584 
" style="fill: none; stroke: #ffffff; stroke-width: 0.8; stroke-linejoin: miter; stroke-linecap: square"/>
   </g>
   <g id="patch_32">
    <path d="M 57.6 41.472 
L 414.72 41.472 
" style="fill: none; stroke: #ffffff; stroke-width: 0.8; stroke-linejoin: miter; stroke-linecap: square"/>
   </g>
   <g id="legend_1">
    <g id="patch_33">
     <path d="M 282.380156 97.506375 
L 404.22 97.506375 
Q 407.22 97.506375 407.22 94.506375 
L 407.22 51.972 
Q 407.22 48.972 404.22 48.972 
L 282.380156 48.972 
Q 279.380156 48.972 279.380156 51.972 
L 279.380156 94.506375 
Q 279.380156 97.506375 282.380156 97.506375 
z
" style="opacity: 0.8; stroke: #cccccc; stroke-linejoin: miter"/>
    </g>
    <g id="patch_34">
     <path d="M 285.380156 66.369656 
L 315.380156 66.369656 
L 315.380156 55.869656 
L 285.380156 55.869656 
z
" style="fill: #008000"/>
    </g>
    <g id="text_19">
     <!-- Осталось -->
     <g style="fill: #ffffff" transform="translate(327.380156 66.369656)scale(0.15 -0.15)">
      <use xlink:href="#DejaVuSans-41e"/>
      <use xlink:href="#DejaVuSans-441" x="78.710938"/>
      <use xlink:href="#DejaVuSans-442" x="133.691406"/>
      <use xlink:href="#DejaVuSans-430" x="191.943359"/>
      <use xlink:href="#DejaVuSans-43b" x="253.222656"/>
      <use xlink:href="#DejaVuSans-43e" x="317.138672"/>
      <use xlink:href="#DejaVuSans-441" x="378.320312"/>
      <use xlink:href="#DejaVuSans-44c" x="433.300781"/>
     </g>
    </g>
    <g id="patch_35">
     <path d="M 285.380156 88.386844 
L 315.380156 88.386844 
L 315.380156 77.886844 
L 285.380156 77.886844 
z
" style="fill: #ff0000"/>
    </g>
    <g id="text_20">
     <!-- Удалено -->
     <g style="fill: #ffffff" transform="translate(327.380156 88.386844)scale(0.15 -0.15)">
      <defs>
       <path id="DejaVuSans-423" d="M 2047 566 
Q 1981 409 1881 291 
Q 1634 0 850 0 
L 609 0 
L 609 531 
L 806 531 
Q 1178 531 1322 616 
Q 1409 669 1466 800 
L 1606 1131 
L 109 4666 
L 788 4666 
L 1947 1928 
L 3113 4666 
L 3791 4666 
L 2047 566 
z
" transform="scale(0.015625)"/>
      </defs>
      <use xlink:href="#DejaVuSans-423"/>
      <use xlink:href="#DejaVuSans-434" x="60.9375"/>
      <use xlink:href="#DejaVuSans-430" x="130.078125"/>
      <use xlink:href="#DejaVuSans-43b" x="191.357422"/>
      <use xlink:href="#DejaVuSans-435" x="255.273438"/>
      <use xlink:href="#DejaVuSans-43d" x="316.796875"/>
      <use xlink:href="#DejaVuSans-43e" x="382.177734"/>
     </g>
    </g>
   </g>
  </g>
 </g>
 <defs>
  <clipPath id="p345f384c55">
   <rect x="57.6" y="41.472" width="357.12" height="266.112"/>
  </clipPath>
 </defs>
</svg>
