<?xml version="1.0" encoding="utf-8" standalone="no"?>
<!DOCTYPE svg PUBLIC "-//W3C//DTD SVG 1.1//EN"
  "http://www.w3.org/Graphics/SVG/1.1/DTD/svg11.dtd">
<svg xmlns:xlink="http://www.w3.org/1999/xlink" width="864pt" height="576pt" viewBox="0 0 864 576" xmlns="http://www.w3.org/2000/svg" version="1.1">
 <metadata>
  <rdf:RDF xmlns:dc="http://purl.org/dc/elements/1.1/" xmlns:cc="http://creativecommons.org/ns#" xmlns:rdf="http://www.w3.org/1999/02/22-rdf-syntax-ns#">
   <cc:Work>
    <dc:type rdf:resource="http://purl.org/dc/dcmitype/StillImage"/>
    <dc:date>2023-12-20T02:21:34.613088</dc:date>
    <dc:format>image/svg+xml</dc:format>
    <dc:creator>
     <cc:Agent>
      <dc:title>Matplotlib v3.5.3, https://matplotlib.org/</dc:title>
     </cc:Agent>
    </dc:creator>
   </cc:Work>
  </rdf:RDF>
 </metadata>
 <defs>
  <style type="text/css">*{stroke-linejoin: round; stroke-linecap: butt}</style>
 </defs>
 <g id="figure_1">
  <g id="patch_1">
   <path d="M 0 576 
L 864 576 
L 864 0 
L 0 0 
z
"/>
  </g>
  <g id="axes_1">
   <g id="patch_2">
    <path d="M 108 512.64 
L 777.6 512.64 
L 777.6 69.12 
L 108 69.12 
z
"/>
   </g>
   <g id="patch_3">
    <path d="M 113.150769 512.64 
L 154.356923 512.64 
L 154.356923 193.552626 
L 113.150769 193.552626 
z
" clip-path="url(#p828d436317)" style="fill: #ea96a3"/>
   </g>
   <g id="patch_4">
    <path d="M 164.658462 512.64 
L 205.864615 512.64 
L 205.864615 297.310244 
L 164.658462 297.310244 
z
" clip-path="url(#p828d436317)" style="fill: #e39361"/>
   </g>
   <g id="patch_5">
    <path d="M 216.166154 512.64 
L 257.372308 512.64 
L 257.372308 207.698506 
L 216.166154 207.698506 
z
" clip-path="url(#p828d436317)" style="fill: #be9b4a"/>
   </g>
   <g id="patch_6">
    <path d="M 267.673846 512.64 
L 308.88 512.64 
L 308.88 90.24 
L 267.673846 90.24 
z
" clip-path="url(#p828d436317)" style="fill: #9fa045"/>
   </g>
   <g id="patch_7">
    <path d="M 319.181538 512.64 
L 360.387692 512.64 
L 360.387692 375.808968 
L 319.181538 375.808968 
z
" clip-path="url(#p828d436317)" style="fill: #7aaa47"/>
   </g>
   <g id="patch_8">
    <path d="M 370.689231 512.64 
L 411.895385 512.64 
L 411.895385 368.585102 
L 370.689231 368.585102 
z
" clip-path="url(#p828d436317)" style="fill: #49af79"/>
   </g>
   <g id="patch_9">
    <path d="M 422.196923 512.64 
L 463.403077 512.64 
L 463.403077 342.495618 
L 422.196923 342.495618 
z
" clip-path="url(#p828d436317)" style="fill: #4aac9a"/>
   </g>
   <g id="patch_10">
    <path d="M 473.704615 512.64 
L 514.910769 512.64 
L 514.910769 201.010093 
L 473.704615 201.010093 
z
" clip-path="url(#p828d436317)" style="fill: #4cabae"/>
   </g>
   <g id="patch_11">
    <path d="M 525.212308 512.64 
L 566.418462 512.64 
L 566.418462 239.245686 
L 525.212308 239.245686 
z
" clip-path="url(#p828d436317)" style="fill: #52acc9"/>
   </g>
   <g id="patch_12">
    <path d="M 576.72 512.64 
L 617.926154 512.64 
L 617.926154 165.804822 
L 576.72 165.804822 
z
" clip-path="url(#p828d436317)" style="fill: #8daee7"/>
   </g>
   <g id="patch_13">
    <path d="M 628.227692 512.64 
L 669.433846 512.64 
L 669.433846 281.36672 
L 628.227692 281.36672 
z
" clip-path="url(#p828d436317)" style="fill: #bfa3ea"/>
   </g>
   <g id="patch_14">
    <path d="M 679.735385 512.64 
L 720.941538 512.64 
L 720.941538 241.501438 
L 679.735385 241.501438 
z
" clip-path="url(#p828d436317)" style="fill: #e689e6"/>
   </g>
   <g id="patch_15">
    <path d="M 731.243077 512.64 
L 772.449231 512.64 
L 772.449231 331.285314 
L 731.243077 331.285314 
z
" clip-path="url(#p828d436317)" style="fill: #e891c3"/>
   </g>
   <g id="matplotlib.axis_1">
    <g id="xtick_1">
     <g id="line2d_1">
      <defs>
       <path id="m04f69998f7" d="M 0 0 
L 0 3.5 
" style="stroke: #ffffff; stroke-width: 0.8"/>
      </defs>
      <g>
       <use xlink:href="#m04f69998f7" x="133.753846" y="512.64" style="fill: #ffffff; stroke: #ffffff; stroke-width: 0.8"/>
      </g>
     </g>
     <g id="text_1">
      <!-- аптеки -->
      <g style="fill: #ffffff" transform="translate(137.892909 575.414219)rotate(-90)scale(0.15 -0.15)">
       <defs>
        <path id="DejaVuSans-430" d="M 2194 1759 
Q 1497 1759 1228 1600 
Q 959 1441 959 1056 
Q 959 750 1161 570 
Q 1363 391 1709 391 
Q 2188 391 2477 730 
Q 2766 1069 2766 1631 
L 2766 1759 
L 2194 1759 
z
M 3341 1997 
L 3341 0 
L 2766 0 
L 2766 531 
Q 2569 213 2275 61 
Q 1981 -91 1556 -91 
Q 1019 -91 701 211 
Q 384 513 384 1019 
Q 384 1609 779 1909 
Q 1175 2209 1959 2209 
L 2766 2209 
L 2766 2266 
Q 2766 2663 2505 2880 
Q 2244 3097 1772 3097 
Q 1472 3097 1187 3025 
Q 903 2953 641 2809 
L 641 3341 
Q 956 3463 1253 3523 
Q 1550 3584 1831 3584 
Q 2591 3584 2966 3190 
Q 3341 2797 3341 1997 
z
" transform="scale(0.015625)"/>
        <path id="DejaVuSans-43f" d="M 3603 3500 
L 3603 0 
L 3025 0 
L 3025 3041 
L 1159 3041 
L 1159 0 
L 581 0 
L 581 3500 
L 3603 3500 
z
" transform="scale(0.015625)"/>
        <path id="DejaVuSans-442" d="M 188 3500 
L 3541 3500 
L 3541 3041 
L 2147 3041 
L 2147 0 
L 1581 0 
L 1581 3041 
L 188 3041 
L 188 3500 
z
" transform="scale(0.015625)"/>
        <path id="DejaVuSans-435" d="M 3597 1894 
L 3597 1613 
L 953 1613 
Q 991 1019 1311 708 
Q 1631 397 2203 397 
Q 2534 397 2845 478 
Q 3156 559 3463 722 
L 3463 178 
Q 3153 47 2828 -22 
Q 2503 -91 2169 -91 
Q 1331 -91 842 396 
Q 353 884 353 1716 
Q 353 2575 817 3079 
Q 1281 3584 2069 3584 
Q 2775 3584 3186 3129 
Q 3597 2675 3597 1894 
z
M 3022 2063 
Q 3016 2534 2758 2815 
Q 2500 3097 2075 3097 
Q 1594 3097 1305 2825 
Q 1016 2553 972 2059 
L 3022 2063 
z
" transform="scale(0.015625)"/>
        <path id="DejaVuSans-43a" d="M 581 3500 
L 1153 3500 
L 1153 1856 
L 2775 3500 
L 3481 3500 
L 2144 2147 
L 3653 0 
L 3009 0 
L 1769 1766 
L 1153 1141 
L 1153 0 
L 581 0 
L 581 3500 
z
" transform="scale(0.015625)"/>
        <path id="DejaVuSans-438" d="M 3578 3500 
L 3578 0 
L 3006 0 
L 3006 2809 
L 1319 0 
L 581 0 
L 581 3500 
L 1153 3500 
L 1153 697 
L 2838 3500 
L 3578 3500 
z
" transform="scale(0.015625)"/>
       </defs>
       <use xlink:href="#DejaVuSans-430"/>
       <use xlink:href="#DejaVuSans-43f" x="61.279297"/>
       <use xlink:href="#DejaVuSans-442" x="126.660156"/>
       <use xlink:href="#DejaVuSans-435" x="184.912109"/>
       <use xlink:href="#DejaVuSans-43a" x="246.435547"/>
       <use xlink:href="#DejaVuSans-438" x="306.835938"/>
      </g>
     </g>
    </g>
    <g id="xtick_2">
     <g id="line2d_2">
      <g>
       <use xlink:href="#m04f69998f7" x="185.261538" y="512.64" style="fill: #ffffff; stroke: #ffffff; stroke-width: 0.8"/>
      </g>
     </g>
     <g id="text_2">
      <!-- рестораны -->
      <g style="fill: #ffffff" transform="translate(189.400601 604.919688)rotate(-90)scale(0.15 -0.15)">
       <defs>
        <path id="DejaVuSans-440" d="M 1159 525 
L 1159 -1331 
L 581 -1331 
L 581 3500 
L 1159 3500 
L 1159 2969 
Q 1341 3281 1617 3432 
Q 1894 3584 2278 3584 
Q 2916 3584 3314 3078 
Q 3713 2572 3713 1747 
Q 3713 922 3314 415 
Q 2916 -91 2278 -91 
Q 1894 -91 1617 61 
Q 1341 213 1159 525 
z
M 3116 1747 
Q 3116 2381 2855 2742 
Q 2594 3103 2138 3103 
Q 1681 3103 1420 2742 
Q 1159 2381 1159 1747 
Q 1159 1113 1420 752 
Q 1681 391 2138 391 
Q 2594 391 2855 752 
Q 3116 1113 3116 1747 
z
" transform="scale(0.015625)"/>
        <path id="DejaVuSans-441" d="M 3122 3366 
L 3122 2828 
Q 2878 2963 2633 3030 
Q 2388 3097 2138 3097 
Q 1578 3097 1268 2742 
Q 959 2388 959 1747 
Q 959 1106 1268 751 
Q 1578 397 2138 397 
Q 2388 397 2633 464 
Q 2878 531 3122 666 
L 3122 134 
Q 2881 22 2623 -34 
Q 2366 -91 2075 -91 
Q 1284 -91 818 406 
Q 353 903 353 1747 
Q 353 2603 823 3093 
Q 1294 3584 2113 3584 
Q 2378 3584 2631 3529 
Q 2884 3475 3122 3366 
z
" transform="scale(0.015625)"/>
        <path id="DejaVuSans-43e" d="M 1959 3097 
Q 1497 3097 1228 2736 
Q 959 2375 959 1747 
Q 959 1119 1226 758 
Q 1494 397 1959 397 
Q 2419 397 2687 759 
Q 2956 1122 2956 1747 
Q 2956 2369 2687 2733 
Q 2419 3097 1959 3097 
z
M 1959 3584 
Q 2709 3584 3137 3096 
Q 3566 2609 3566 1747 
Q 3566 888 3137 398 
Q 2709 -91 1959 -91 
Q 1206 -91 779 398 
Q 353 888 353 1747 
Q 353 2609 779 3096 
Q 1206 3584 1959 3584 
z
" transform="scale(0.015625)"/>
        <path id="DejaVuSans-43d" d="M 581 3500 
L 1159 3500 
L 1159 2072 
L 3025 2072 
L 3025 3500 
L 3603 3500 
L 3603 0 
L 3025 0 
L 3025 1613 
L 1159 1613 
L 1159 0 
L 581 0 
L 581 3500 
z
" transform="scale(0.015625)"/>
        <path id="DejaVuSans-44b" d="M 3907 3500 
L 4482 3500 
L 4482 0 
L 3907 0 
L 3907 3500 
z
M 4195 3584 
L 4195 3584 
z
M 2781 1038 
Q 2781 1319 2576 1466 
Q 2372 1613 1978 1613 
L 1159 1613 
L 1159 459 
L 1978 459 
Q 2372 459 2576 607 
Q 2781 756 2781 1038 
z
M 581 3500 
L 1159 3500 
L 1159 2072 
L 2003 2072 
Q 2672 2072 3033 1817 
Q 3394 1563 3394 1038 
Q 3394 513 3033 256 
Q 2672 0 2003 0 
L 581 0 
L 581 3500 
z
" transform="scale(0.015625)"/>
       </defs>
       <use xlink:href="#DejaVuSans-440"/>
       <use xlink:href="#DejaVuSans-435" x="63.476562"/>
       <use xlink:href="#DejaVuSans-441" x="125"/>
       <use xlink:href="#DejaVuSans-442" x="179.980469"/>
       <use xlink:href="#DejaVuSans-43e" x="238.232422"/>
       <use xlink:href="#DejaVuSans-440" x="299.414062"/>
       <use xlink:href="#DejaVuSans-430" x="362.890625"/>
       <use xlink:href="#DejaVuSans-43d" x="424.169922"/>
       <use xlink:href="#DejaVuSans-44b" x="489.550781"/>
      </g>
     </g>
    </g>
    <g id="xtick_3">
     <g id="line2d_3">
      <g>
       <use xlink:href="#m04f69998f7" x="236.769231" y="512.64" style="fill: #ffffff; stroke: #ffffff; stroke-width: 0.8"/>
      </g>
     </g>
     <g id="text_3">
      <!-- одежда -->
      <g style="fill: #ffffff" transform="translate(240.908293 581.49625)rotate(-90)scale(0.15 -0.15)">
       <defs>
        <path id="DejaVuSans-434" d="M 1384 459 
L 3053 459 
L 3053 3041 
L 1844 3041 
L 1844 2603 
Q 1844 1316 1475 628 
L 1384 459 
z
M 550 459 
Q 834 584 959 850 
Q 1266 1509 1266 2838 
L 1266 3500 
L 3631 3500 
L 3631 459 
L 4091 459 
L 4091 -884 
L 3631 -884 
L 3631 0 
L 794 0 
L 794 -884 
L 334 -884 
L 334 459 
L 550 459 
z
" transform="scale(0.015625)"/>
        <path id="DejaVuSans-436" d="M 2597 3500 
L 3169 3500 
L 3169 1856 
L 4697 3500 
L 5366 3500 
L 4109 2153 
L 5547 0 
L 4931 0 
L 3753 1769 
L 3169 1141 
L 3169 0 
L 2597 0 
L 2597 1141 
L 2013 1769 
L 834 0 
L 219 0 
L 1656 2153 
L 400 3500 
L 1069 3500 
L 2597 1856 
L 2597 3500 
z
" transform="scale(0.015625)"/>
       </defs>
       <use xlink:href="#DejaVuSans-43e"/>
       <use xlink:href="#DejaVuSans-434" x="61.181641"/>
       <use xlink:href="#DejaVuSans-435" x="130.322266"/>
       <use xlink:href="#DejaVuSans-436" x="191.845703"/>
       <use xlink:href="#DejaVuSans-434" x="281.933594"/>
       <use xlink:href="#DejaVuSans-430" x="351.074219"/>
      </g>
     </g>
    </g>
    <g id="xtick_4">
     <g id="line2d_4">
      <g>
       <use xlink:href="#m04f69998f7" x="288.276923" y="512.64" style="fill: #ffffff; stroke: #ffffff; stroke-width: 0.8"/>
      </g>
     </g>
     <g id="text_4">
      <!-- автосервис -->
      <g style="fill: #ffffff" transform="translate(292.415986 609.424375)rotate(-90)scale(0.15 -0.15)">
       <defs>
        <path id="DejaVuSans-432" d="M 1156 1613 
L 1156 459 
L 1975 459 
Q 2369 459 2575 607 
Q 2781 756 2781 1038 
Q 2781 1319 2575 1466 
Q 2369 1613 1975 1613 
L 1156 1613 
z
M 1156 3041 
L 1156 2072 
L 1913 2072 
Q 2238 2072 2444 2201 
Q 2650 2331 2650 2563 
Q 2650 2794 2444 2917 
Q 2238 3041 1913 3041 
L 1156 3041 
z
M 581 3500 
L 1950 3500 
Q 2566 3500 2897 3275 
Q 3228 3050 3228 2634 
Q 3228 2313 3059 2123 
Q 2891 1934 2559 1888 
Q 2956 1813 3175 1575 
Q 3394 1338 3394 981 
Q 3394 513 3033 256 
Q 2672 0 2003 0 
L 581 0 
L 581 3500 
z
" transform="scale(0.015625)"/>
       </defs>
       <use xlink:href="#DejaVuSans-430"/>
       <use xlink:href="#DejaVuSans-432" x="61.279297"/>
       <use xlink:href="#DejaVuSans-442" x="120.214844"/>
       <use xlink:href="#DejaVuSans-43e" x="178.466797"/>
       <use xlink:href="#DejaVuSans-441" x="239.648438"/>
       <use xlink:href="#DejaVuSans-435" x="294.628906"/>
       <use xlink:href="#DejaVuSans-440" x="356.152344"/>
       <use xlink:href="#DejaVuSans-432" x="419.628906"/>
       <use xlink:href="#DejaVuSans-438" x="478.564453"/>
       <use xlink:href="#DejaVuSans-441" x="543.554688"/>
      </g>
     </g>
    </g>
    <g id="xtick_5">
     <g id="line2d_5">
      <g>
       <use xlink:href="#m04f69998f7" x="339.784615" y="512.64" style="fill: #ffffff; stroke: #ffffff; stroke-width: 0.8"/>
      </g>
     </g>
     <g id="text_5">
      <!-- супермаркеты -->
      <g style="fill: #ffffff" transform="translate(343.923678 634.225937)rotate(-90)scale(0.15 -0.15)">
       <defs>
        <path id="DejaVuSans-443" d="M 2059 -325 
Q 1816 -950 1584 -1140 
Q 1353 -1331 966 -1331 
L 506 -1331 
L 506 -850 
L 844 -850 
Q 1081 -850 1212 -737 
Q 1344 -625 1503 -206 
L 1606 56 
L 191 3500 
L 800 3500 
L 1894 763 
L 2988 3500 
L 3597 3500 
L 2059 -325 
z
" transform="scale(0.015625)"/>
        <path id="DejaVuSans-43c" d="M 581 3500 
L 1422 3500 
L 2416 1156 
L 3413 3500 
L 4247 3500 
L 4247 0 
L 3669 0 
L 3669 2950 
L 2703 672 
L 2128 672 
L 1159 2950 
L 1159 0 
L 581 0 
L 581 3500 
z
" transform="scale(0.015625)"/>
       </defs>
       <use xlink:href="#DejaVuSans-441"/>
       <use xlink:href="#DejaVuSans-443" x="54.980469"/>
       <use xlink:href="#DejaVuSans-43f" x="114.160156"/>
       <use xlink:href="#DejaVuSans-435" x="179.541016"/>
       <use xlink:href="#DejaVuSans-440" x="241.064453"/>
       <use xlink:href="#DejaVuSans-43c" x="304.541016"/>
       <use xlink:href="#DejaVuSans-430" x="379.980469"/>
       <use xlink:href="#DejaVuSans-440" x="441.259766"/>
       <use xlink:href="#DejaVuSans-43a" x="504.736328"/>
       <use xlink:href="#DejaVuSans-435" x="565.136719"/>
       <use xlink:href="#DejaVuSans-442" x="626.660156"/>
       <use xlink:href="#DejaVuSans-44b" x="684.912109"/>
      </g>
     </g>
    </g>
    <g id="xtick_6">
     <g id="line2d_6">
      <g>
       <use xlink:href="#m04f69998f7" x="391.292308" y="512.64" style="fill: #ffffff; stroke: #ffffff; stroke-width: 0.8"/>
      </g>
     </g>
     <g id="text_6">
      <!-- такси -->
      <g style="fill: #ffffff" transform="translate(395.43137 564.625937)rotate(-90)scale(0.15 -0.15)">
       <use xlink:href="#DejaVuSans-442"/>
       <use xlink:href="#DejaVuSans-430" x="58.251953"/>
       <use xlink:href="#DejaVuSans-43a" x="119.53125"/>
       <use xlink:href="#DejaVuSans-441" x="179.931641"/>
       <use xlink:href="#DejaVuSans-438" x="234.912109"/>
      </g>
     </g>
    </g>
    <g id="xtick_7">
     <g id="line2d_7">
      <g>
       <use xlink:href="#m04f69998f7" x="442.8" y="512.64" style="fill: #ffffff; stroke: #ffffff; stroke-width: 0.8"/>
      </g>
     </g>
     <g id="text_7">
      <!-- красота -->
      <g style="fill: #ffffff" transform="translate(446.939063 582.77125)rotate(-90)scale(0.15 -0.15)">
       <use xlink:href="#DejaVuSans-43a"/>
       <use xlink:href="#DejaVuSans-440" x="60.400391"/>
       <use xlink:href="#DejaVuSans-430" x="123.876953"/>
       <use xlink:href="#DejaVuSans-441" x="185.15625"/>
       <use xlink:href="#DejaVuSans-43e" x="240.136719"/>
       <use xlink:href="#DejaVuSans-442" x="301.318359"/>
       <use xlink:href="#DejaVuSans-430" x="359.570312"/>
      </g>
     </g>
    </g>
    <g id="xtick_8">
     <g id="line2d_8">
      <g>
       <use xlink:href="#m04f69998f7" x="494.307692" y="512.64" style="fill: #ffffff; stroke: #ffffff; stroke-width: 0.8"/>
      </g>
     </g>
     <g id="text_8">
      <!-- развлечения -->
      <g style="fill: #ffffff" transform="translate(498.446755 620.657969)rotate(-90)scale(0.15 -0.15)">
       <defs>
        <path id="DejaVuSans-437" d="M 2206 1888 
Q 2594 1813 2809 1584 
Q 3025 1356 3025 1019 
Q 3025 478 2622 193 
Q 2219 -91 1475 -91 
Q 1225 -91 961 -47 
Q 697 -3 416 84 
L 416 619 
Q 638 503 903 445 
Q 1169 388 1459 388 
Q 1931 388 2195 563 
Q 2459 738 2459 1019 
Q 2459 1294 2225 1461 
Q 1991 1628 1563 1628 
L 1100 1628 
L 1100 2103 
L 1584 2103 
Q 1947 2103 2158 2242 
Q 2369 2381 2369 2600 
Q 2369 2800 2151 2944 
Q 1934 3088 1563 3088 
Q 1341 3088 1089 3047 
Q 838 3006 534 2916 
L 534 3438 
Q 841 3513 1106 3550 
Q 1372 3588 1609 3588 
Q 2222 3588 2576 3342 
Q 2931 3097 2931 2656 
Q 2931 2366 2743 2164 
Q 2556 1963 2206 1888 
z
" transform="scale(0.015625)"/>
        <path id="DejaVuSans-43b" d="M 238 0 
L 238 478 
Q 806 566 981 959 
Q 1194 1513 1194 2928 
L 1194 3500 
L 3559 3500 
L 3559 0 
L 2984 0 
L 2984 3041 
L 1769 3041 
L 1769 2694 
Q 1769 1344 1494 738 
Q 1200 91 238 0 
z
" transform="scale(0.015625)"/>
        <path id="DejaVuSans-447" d="M 2625 0 
L 2625 1472 
L 1553 1472 
Q 1075 1472 756 1769 
Q 469 2038 469 2613 
L 469 3500 
L 1044 3500 
L 1044 2666 
Q 1044 2300 1206 2116 
Q 1372 1931 1697 1931 
L 2625 1931 
L 2625 3500 
L 3200 3500 
L 3200 0 
L 2625 0 
z
" transform="scale(0.015625)"/>
        <path id="DejaVuSans-44f" d="M 1181 2491 
Q 1181 2231 1381 2084 
Q 1581 1938 1953 1938 
L 2728 1938 
L 2728 3041 
L 1953 3041 
Q 1581 3041 1381 2897 
Q 1181 2753 1181 2491 
z
M 363 0 
L 1431 1534 
Q 1069 1616 828 1830 
Q 588 2044 588 2491 
Q 588 2997 923 3248 
Q 1259 3500 1938 3500 
L 3306 3500 
L 3306 0 
L 2728 0 
L 2728 1478 
L 2013 1478 
L 981 0 
L 363 0 
z
" transform="scale(0.015625)"/>
       </defs>
       <use xlink:href="#DejaVuSans-440"/>
       <use xlink:href="#DejaVuSans-430" x="63.476562"/>
       <use xlink:href="#DejaVuSans-437" x="124.755859"/>
       <use xlink:href="#DejaVuSans-432" x="177.929688"/>
       <use xlink:href="#DejaVuSans-43b" x="236.865234"/>
       <use xlink:href="#DejaVuSans-435" x="300.78125"/>
       <use xlink:href="#DejaVuSans-447" x="362.304688"/>
       <use xlink:href="#DejaVuSans-435" x="421.386719"/>
       <use xlink:href="#DejaVuSans-43d" x="482.910156"/>
       <use xlink:href="#DejaVuSans-438" x="548.291016"/>
       <use xlink:href="#DejaVuSans-44f" x="613.28125"/>
      </g>
     </g>
    </g>
    <g id="xtick_9">
     <g id="line2d_9">
      <g>
       <use xlink:href="#m04f69998f7" x="545.815385" y="512.64" style="fill: #ffffff; stroke: #ffffff; stroke-width: 0.8"/>
      </g>
     </g>
     <g id="text_9">
      <!-- Ж/Д -->
      <g style="fill: #ffffff" transform="translate(549.954447 552.569687)rotate(-90)scale(0.15 -0.15)">
       <defs>
        <path id="DejaVuSans-416" d="M 3131 4666 
L 3763 4666 
L 3763 2359 
L 5894 4666 
L 6659 4666 
L 4956 2825 
L 6769 0 
L 6109 0 
L 4569 2403 
L 3763 1531 
L 3763 0 
L 3131 0 
L 3131 1531 
L 2325 2403 
L 784 0 
L 125 0 
L 1938 2825 
L 234 4666 
L 1000 4666 
L 3131 2359 
L 3131 4666 
z
" transform="scale(0.015625)"/>
        <path id="DejaVuSans-2f" d="M 1625 4666 
L 2156 4666 
L 531 -594 
L 0 -594 
L 1625 4666 
z
" transform="scale(0.015625)"/>
        <path id="DejaVuSans-414" d="M 1459 531 
L 3522 531 
L 3522 4134 
L 2006 4134 
L 2006 3472 
Q 2006 1913 1656 878 
Q 1584 666 1459 531 
z
M 538 531 
Q 956 728 1075 1103 
Q 1378 2066 1378 3784 
L 1378 4666 
L 4153 4666 
L 4153 531 
L 4684 531 
L 4684 -1003 
L 4153 -1003 
L 4153 0 
L 847 0 
L 847 -1003 
L 316 -1003 
L 316 531 
L 538 531 
z
" transform="scale(0.015625)"/>
       </defs>
       <use xlink:href="#DejaVuSans-416"/>
       <use xlink:href="#DejaVuSans-2f" x="107.714844"/>
       <use xlink:href="#DejaVuSans-414" x="141.40625"/>
      </g>
     </g>
    </g>
    <g id="xtick_10">
     <g id="line2d_10">
      <g>
       <use xlink:href="#m04f69998f7" x="597.323077" y="512.64" style="fill: #ffffff; stroke: #ffffff; stroke-width: 0.8"/>
      </g>
     </g>
     <g id="text_10">
      <!-- образование -->
      <g style="fill: #ffffff" transform="translate(601.589874 620.754063)rotate(-90)scale(0.15 -0.15)">
       <defs>
        <path id="DejaVuSans-431" d="M 1991 3584 
Q 2741 3584 3169 3096 
Q 3597 2609 3597 1747 
Q 3597 888 3169 398 
Q 2741 -91 1991 -91 
Q 1238 -91 822 384 
Q 406 859 384 1747 
L 366 2463 
Q 350 2834 350 2963 
Q 350 3463 531 3831 
Q 816 4409 1308 4659 
Q 1800 4909 2625 4916 
Q 3006 4919 3175 4972 
L 3334 4516 
Q 3181 4453 3041 4450 
L 2259 4397 
Q 1866 4369 1628 4231 
Q 1006 3866 947 3388 
L 925 3213 
Q 1331 3584 1991 3584 
z
M 1991 3097 
Q 1528 3097 1259 2736 
Q 991 2375 991 1747 
Q 991 1119 1258 758 
Q 1525 397 1991 397 
Q 2450 397 2719 759 
Q 2988 1122 2988 1747 
Q 2988 2369 2719 2733 
Q 2450 3097 1991 3097 
z
" transform="scale(0.015625)"/>
       </defs>
       <use xlink:href="#DejaVuSans-43e"/>
       <use xlink:href="#DejaVuSans-431" x="61.181641"/>
       <use xlink:href="#DejaVuSans-440" x="122.851562"/>
       <use xlink:href="#DejaVuSans-430" x="186.328125"/>
       <use xlink:href="#DejaVuSans-437" x="247.607422"/>
       <use xlink:href="#DejaVuSans-43e" x="300.78125"/>
       <use xlink:href="#DejaVuSans-432" x="361.962891"/>
       <use xlink:href="#DejaVuSans-430" x="420.898438"/>
       <use xlink:href="#DejaVuSans-43d" x="482.177734"/>
       <use xlink:href="#DejaVuSans-438" x="547.558594"/>
       <use xlink:href="#DejaVuSans-435" x="612.548828"/>
      </g>
     </g>
    </g>
    <g id="xtick_11">
     <g id="line2d_11">
      <g>
       <use xlink:href="#m04f69998f7" x="648.830769" y="512.64" style="fill: #ffffff; stroke: #ffffff; stroke-width: 0.8"/>
      </g>
     </g>
     <g id="text_11">
      <!-- спорттовары -->
      <g style="fill: #ffffff" transform="translate(652.969832 622.44625)rotate(-90)scale(0.15 -0.15)">
       <use xlink:href="#DejaVuSans-441"/>
       <use xlink:href="#DejaVuSans-43f" x="54.980469"/>
       <use xlink:href="#DejaVuSans-43e" x="120.361328"/>
       <use xlink:href="#DejaVuSans-440" x="181.542969"/>
       <use xlink:href="#DejaVuSans-442" x="245.019531"/>
       <use xlink:href="#DejaVuSans-442" x="303.271484"/>
       <use xlink:href="#DejaVuSans-43e" x="361.523438"/>
       <use xlink:href="#DejaVuSans-432" x="422.705078"/>
       <use xlink:href="#DejaVuSans-430" x="481.640625"/>
       <use xlink:href="#DejaVuSans-440" x="542.919922"/>
       <use xlink:href="#DejaVuSans-44b" x="606.396484"/>
      </g>
     </g>
    </g>
    <g id="xtick_12">
     <g id="line2d_12">
      <g>
       <use xlink:href="#m04f69998f7" x="700.338462" y="512.64" style="fill: #ffffff; stroke: #ffffff; stroke-width: 0.8"/>
      </g>
     </g>
     <g id="text_12">
      <!-- животные -->
      <g style="fill: #ffffff" transform="translate(704.477524 600.536875)rotate(-90)scale(0.15 -0.15)">
       <use xlink:href="#DejaVuSans-436"/>
       <use xlink:href="#DejaVuSans-438" x="90.087891"/>
       <use xlink:href="#DejaVuSans-432" x="155.078125"/>
       <use xlink:href="#DejaVuSans-43e" x="214.013672"/>
       <use xlink:href="#DejaVuSans-442" x="275.195312"/>
       <use xlink:href="#DejaVuSans-43d" x="333.447266"/>
       <use xlink:href="#DejaVuSans-44b" x="398.828125"/>
       <use xlink:href="#DejaVuSans-435" x="477.783203"/>
      </g>
     </g>
    </g>
    <g id="xtick_13">
     <g id="line2d_13">
      <g>
       <use xlink:href="#m04f69998f7" x="751.846154" y="512.64" style="fill: #ffffff; stroke: #ffffff; stroke-width: 0.8"/>
      </g>
     </g>
     <g id="text_13">
      <!-- цветы -->
      <g style="fill: #ffffff" transform="translate(755.985216 568.500156)rotate(-90)scale(0.15 -0.15)">
       <defs>
        <path id="DejaVuSans-446" d="M 3603 0 
L 581 0 
L 581 3500 
L 1159 3500 
L 1159 459 
L 3025 459 
L 3025 3500 
L 3603 3500 
L 3603 459 
L 4063 459 
L 4063 -884 
L 3603 -884 
L 3603 0 
z
" transform="scale(0.015625)"/>
       </defs>
       <use xlink:href="#DejaVuSans-446"/>
       <use xlink:href="#DejaVuSans-432" x="68.066406"/>
       <use xlink:href="#DejaVuSans-435" x="127.001953"/>
       <use xlink:href="#DejaVuSans-442" x="188.525391"/>
       <use xlink:href="#DejaVuSans-44b" x="246.777344"/>
      </g>
     </g>
    </g>
    <g id="text_14">
     <!-- категории -->
     <g style="fill: #ffffff" transform="translate(401.650781 649.623594)scale(0.15 -0.15)">
      <defs>
       <path id="DejaVuSans-433" d="M 581 0 
L 581 3500 
L 3050 3500 
L 3050 3041 
L 1159 3041 
L 1159 0 
L 581 0 
z
" transform="scale(0.015625)"/>
      </defs>
      <use xlink:href="#DejaVuSans-43a"/>
      <use xlink:href="#DejaVuSans-430" x="60.400391"/>
      <use xlink:href="#DejaVuSans-442" x="121.679688"/>
      <use xlink:href="#DejaVuSans-435" x="179.931641"/>
      <use xlink:href="#DejaVuSans-433" x="241.455078"/>
      <use xlink:href="#DejaVuSans-43e" x="293.994141"/>
      <use xlink:href="#DejaVuSans-440" x="355.175781"/>
      <use xlink:href="#DejaVuSans-438" x="418.652344"/>
      <use xlink:href="#DejaVuSans-438" x="483.642578"/>
     </g>
    </g>
   </g>
   <g id="matplotlib.axis_2">
    <g id="ytick_1">
     <g id="line2d_14">
      <path d="M 108 512.64 
L 777.6 512.64 
" clip-path="url(#p828d436317)" style="fill: none; stroke: #ffffff; stroke-width: 0.8; stroke-linecap: square"/>
     </g>
     <g id="line2d_15">
      <defs>
       <path id="m5e35be1cdb" d="M 0 0 
L -3.5 0 
" style="stroke: #ffffff; stroke-width: 0.8"/>
      </defs>
      <g>
       <use xlink:href="#m5e35be1cdb" x="108" y="512.64" style="fill: #ffffff; stroke: #ffffff; stroke-width: 0.8"/>
      </g>
     </g>
     <g id="text_15">
      <!-- 0.0 -->
      <g style="fill: #ffffff" transform="translate(77.145313 518.338828)scale(0.15 -0.15)">
       <defs>
        <path id="DejaVuSans-30" d="M 2034 4250 
Q 1547 4250 1301 3770 
Q 1056 3291 1056 2328 
Q 1056 1369 1301 889 
Q 1547 409 2034 409 
Q 2525 409 2770 889 
Q 3016 1369 3016 2328 
Q 3016 3291 2770 3770 
Q 2525 4250 2034 4250 
z
M 2034 4750 
Q 2819 4750 3233 4129 
Q 3647 3509 3647 2328 
Q 3647 1150 3233 529 
Q 2819 -91 2034 -91 
Q 1250 -91 836 529 
Q 422 1150 422 2328 
Q 422 3509 836 4129 
Q 1250 4750 2034 4750 
z
" transform="scale(0.015625)"/>
        <path id="DejaVuSans-2e" d="M 684 794 
L 1344 794 
L 1344 0 
L 684 0 
L 684 794 
z
" transform="scale(0.015625)"/>
       </defs>
       <use xlink:href="#DejaVuSans-30"/>
       <use xlink:href="#DejaVuSans-2e" x="63.623047"/>
       <use xlink:href="#DejaVuSans-30" x="95.410156"/>
      </g>
     </g>
    </g>
    <g id="ytick_2">
     <g id="line2d_16">
      <path d="M 108 450.335044 
L 777.6 450.335044 
" clip-path="url(#p828d436317)" style="fill: none; stroke: #ffffff; stroke-width: 0.8; stroke-linecap: square"/>
     </g>
     <g id="line2d_17">
      <g>
       <use xlink:href="#m5e35be1cdb" x="108" y="450.335044" style="fill: #ffffff; stroke: #ffffff; stroke-width: 0.8"/>
      </g>
     </g>
     <g id="text_16">
      <!-- 0.5 -->
      <g style="fill: #ffffff" transform="translate(77.145313 456.033872)scale(0.15 -0.15)">
       <defs>
        <path id="DejaVuSans-35" d="M 691 4666 
L 3169 4666 
L 3169 4134 
L 1269 4134 
L 1269 2991 
Q 1406 3038 1543 3061 
Q 1681 3084 1819 3084 
Q 2600 3084 3056 2656 
Q 3513 2228 3513 1497 
Q 3513 744 3044 326 
Q 2575 -91 1722 -91 
Q 1428 -91 1123 -41 
Q 819 9 494 109 
L 494 744 
Q 775 591 1075 516 
Q 1375 441 1709 441 
Q 2250 441 2565 725 
Q 2881 1009 2881 1497 
Q 2881 1984 2565 2268 
Q 2250 2553 1709 2553 
Q 1456 2553 1204 2497 
Q 953 2441 691 2322 
L 691 4666 
z
" transform="scale(0.015625)"/>
       </defs>
       <use xlink:href="#DejaVuSans-30"/>
       <use xlink:href="#DejaVuSans-2e" x="63.623047"/>
       <use xlink:href="#DejaVuSans-35" x="95.410156"/>
      </g>
     </g>
    </g>
    <g id="ytick_3">
     <g id="line2d_18">
      <path d="M 108 388.030088 
L 777.6 388.030088 
" clip-path="url(#p828d436317)" style="fill: none; stroke: #ffffff; stroke-width: 0.8; stroke-linecap: square"/>
     </g>
     <g id="line2d_19">
      <g>
       <use xlink:href="#m5e35be1cdb" x="108" y="388.030088" style="fill: #ffffff; stroke: #ffffff; stroke-width: 0.8"/>
      </g>
     </g>
     <g id="text_17">
      <!-- 1.0 -->
      <g style="fill: #ffffff" transform="translate(77.145313 393.728916)scale(0.15 -0.15)">
       <defs>
        <path id="DejaVuSans-31" d="M 794 531 
L 1825 531 
L 1825 4091 
L 703 3866 
L 703 4441 
L 1819 4666 
L 2450 4666 
L 2450 531 
L 3481 531 
L 3481 0 
L 794 0 
L 794 531 
z
" transform="scale(0.015625)"/>
       </defs>
       <use xlink:href="#DejaVuSans-31"/>
       <use xlink:href="#DejaVuSans-2e" x="63.623047"/>
       <use xlink:href="#DejaVuSans-30" x="95.410156"/>
      </g>
     </g>
    </g>
    <g id="ytick_4">
     <g id="line2d_20">
      <path d="M 108 325.725131 
L 777.6 325.725131 
" clip-path="url(#p828d436317)" style="fill: none; stroke: #ffffff; stroke-width: 0.8; stroke-linecap: square"/>
     </g>
     <g id="line2d_21">
      <g>
       <use xlink:href="#m5e35be1cdb" x="108" y="325.725131" style="fill: #ffffff; stroke: #ffffff; stroke-width: 0.8"/>
      </g>
     </g>
     <g id="text_18">
      <!-- 1.5 -->
      <g style="fill: #ffffff" transform="translate(77.145313 331.423959)scale(0.15 -0.15)">
       <use xlink:href="#DejaVuSans-31"/>
       <use xlink:href="#DejaVuSans-2e" x="63.623047"/>
       <use xlink:href="#DejaVuSans-35" x="95.410156"/>
      </g>
     </g>
    </g>
    <g id="ytick_5">
     <g id="line2d_22">
      <path d="M 108 263.420175 
L 777.6 263.420175 
" clip-path="url(#p828d436317)" style="fill: none; stroke: #ffffff; stroke-width: 0.8; stroke-linecap: square"/>
     </g>
     <g id="line2d_23">
      <g>
       <use xlink:href="#m5e35be1cdb" x="108" y="263.420175" style="fill: #ffffff; stroke: #ffffff; stroke-width: 0.8"/>
      </g>
     </g>
     <g id="text_19">
      <!-- 2.0 -->
      <g style="fill: #ffffff" transform="translate(77.145313 269.119003)scale(0.15 -0.15)">
       <defs>
        <path id="DejaVuSans-32" d="M 1228 531 
L 3431 531 
L 3431 0 
L 469 0 
L 469 531 
Q 828 903 1448 1529 
Q 2069 2156 2228 2338 
Q 2531 2678 2651 2914 
Q 2772 3150 2772 3378 
Q 2772 3750 2511 3984 
Q 2250 4219 1831 4219 
Q 1534 4219 1204 4116 
Q 875 4013 500 3803 
L 500 4441 
Q 881 4594 1212 4672 
Q 1544 4750 1819 4750 
Q 2544 4750 2975 4387 
Q 3406 4025 3406 3419 
Q 3406 3131 3298 2873 
Q 3191 2616 2906 2266 
Q 2828 2175 2409 1742 
Q 1991 1309 1228 531 
z
" transform="scale(0.015625)"/>
       </defs>
       <use xlink:href="#DejaVuSans-32"/>
       <use xlink:href="#DejaVuSans-2e" x="63.623047"/>
       <use xlink:href="#DejaVuSans-30" x="95.410156"/>
      </g>
     </g>
    </g>
    <g id="ytick_6">
     <g id="line2d_24">
      <path d="M 108 201.115219 
L 777.6 201.115219 
" clip-path="url(#p828d436317)" style="fill: none; stroke: #ffffff; stroke-width: 0.8; stroke-linecap: square"/>
     </g>
     <g id="line2d_25">
      <g>
       <use xlink:href="#m5e35be1cdb" x="108" y="201.115219" style="fill: #ffffff; stroke: #ffffff; stroke-width: 0.8"/>
      </g>
     </g>
     <g id="text_20">
      <!-- 2.5 -->
      <g style="fill: #ffffff" transform="translate(77.145313 206.814047)scale(0.15 -0.15)">
       <use xlink:href="#DejaVuSans-32"/>
       <use xlink:href="#DejaVuSans-2e" x="63.623047"/>
       <use xlink:href="#DejaVuSans-35" x="95.410156"/>
      </g>
     </g>
    </g>
    <g id="ytick_7">
     <g id="line2d_26">
      <path d="M 108 138.810263 
L 777.6 138.810263 
" clip-path="url(#p828d436317)" style="fill: none; stroke: #ffffff; stroke-width: 0.8; stroke-linecap: square"/>
     </g>
     <g id="line2d_27">
      <g>
       <use xlink:href="#m5e35be1cdb" x="108" y="138.810263" style="fill: #ffffff; stroke: #ffffff; stroke-width: 0.8"/>
      </g>
     </g>
     <g id="text_21">
      <!-- 3.0 -->
      <g style="fill: #ffffff" transform="translate(77.145313 144.509091)scale(0.15 -0.15)">
       <defs>
        <path id="DejaVuSans-33" d="M 2597 2516 
Q 3050 2419 3304 2112 
Q 3559 1806 3559 1356 
Q 3559 666 3084 287 
Q 2609 -91 1734 -91 
Q 1441 -91 1130 -33 
Q 819 25 488 141 
L 488 750 
Q 750 597 1062 519 
Q 1375 441 1716 441 
Q 2309 441 2620 675 
Q 2931 909 2931 1356 
Q 2931 1769 2642 2001 
Q 2353 2234 1838 2234 
L 1294 2234 
L 1294 2753 
L 1863 2753 
Q 2328 2753 2575 2939 
Q 2822 3125 2822 3475 
Q 2822 3834 2567 4026 
Q 2313 4219 1838 4219 
Q 1578 4219 1281 4162 
Q 984 4106 628 3988 
L 628 4550 
Q 988 4650 1302 4700 
Q 1616 4750 1894 4750 
Q 2613 4750 3031 4423 
Q 3450 4097 3450 3541 
Q 3450 3153 3228 2886 
Q 3006 2619 2597 2516 
z
" transform="scale(0.015625)"/>
       </defs>
       <use xlink:href="#DejaVuSans-33"/>
       <use xlink:href="#DejaVuSans-2e" x="63.623047"/>
       <use xlink:href="#DejaVuSans-30" x="95.410156"/>
      </g>
     </g>
    </g>
    <g id="ytick_8">
     <g id="line2d_28">
      <path d="M 108 76.505306 
L 777.6 76.505306 
" clip-path="url(#p828d436317)" style="fill: none; stroke: #ffffff; stroke-width: 0.8; stroke-linecap: square"/>
     </g>
     <g id="line2d_29">
      <g>
       <use xlink:href="#m5e35be1cdb" x="108" y="76.505306" style="fill: #ffffff; stroke: #ffffff; stroke-width: 0.8"/>
      </g>
     </g>
     <g id="text_22">
      <!-- 3.5 -->
      <g style="fill: #ffffff" transform="translate(77.145313 82.204134)scale(0.15 -0.15)">
       <use xlink:href="#DejaVuSans-33"/>
       <use xlink:href="#DejaVuSans-2e" x="63.623047"/>
       <use xlink:href="#DejaVuSans-35" x="95.410156"/>
      </g>
     </g>
    </g>
    <g id="text_23">
     <!-- coeff -->
     <g style="fill: #ffffff" transform="translate(70.025781 309.488203)rotate(-90)scale(0.15 -0.15)">
      <defs>
       <path id="DejaVuSans-63" d="M 3122 3366 
L 3122 2828 
Q 2878 2963 2633 3030 
Q 2388 3097 2138 3097 
Q 1578 3097 1268 2742 
Q 959 2388 959 1747 
Q 959 1106 1268 751 
Q 1578 397 2138 397 
Q 2388 397 2633 464 
Q 2878 531 3122 666 
L 3122 134 
Q 2881 22 2623 -34 
Q 2366 -91 2075 -91 
Q 1284 -91 818 406 
Q 353 903 353 1747 
Q 353 2603 823 3093 
Q 1294 3584 2113 3584 
Q 2378 3584 2631 3529 
Q 2884 3475 3122 3366 
z
" transform="scale(0.015625)"/>
       <path id="DejaVuSans-6f" d="M 1959 3097 
Q 1497 3097 1228 2736 
Q 959 2375 959 1747 
Q 959 1119 1226 758 
Q 1494 397 1959 397 
Q 2419 397 2687 759 
Q 2956 1122 2956 1747 
Q 2956 2369 2687 2733 
Q 2419 3097 1959 3097 
z
M 1959 3584 
Q 2709 3584 3137 3096 
Q 3566 2609 3566 1747 
Q 3566 888 3137 398 
Q 2709 -91 1959 -91 
Q 1206 -91 779 398 
Q 353 888 353 1747 
Q 353 2609 779 3096 
Q 1206 3584 1959 3584 
z
" transform="scale(0.015625)"/>
       <path id="DejaVuSans-65" d="M 3597 1894 
L 3597 1613 
L 953 1613 
Q 991 1019 1311 708 
Q 1631 397 2203 397 
Q 2534 397 2845 478 
Q 3156 559 3463 722 
L 3463 178 
Q 3153 47 2828 -22 
Q 2503 -91 2169 -91 
Q 1331 -91 842 396 
Q 353 884 353 1716 
Q 353 2575 817 3079 
Q 1281 3584 2069 3584 
Q 2775 3584 3186 3129 
Q 3597 2675 3597 1894 
z
M 3022 2063 
Q 3016 2534 2758 2815 
Q 2500 3097 2075 3097 
Q 1594 3097 1305 2825 
Q 1016 2553 972 2059 
L 3022 2063 
z
" transform="scale(0.015625)"/>
       <path id="DejaVuSans-66" d="M 2375 4863 
L 2375 4384 
L 1825 4384 
Q 1516 4384 1395 4259 
Q 1275 4134 1275 3809 
L 1275 3500 
L 2222 3500 
L 2222 3053 
L 1275 3053 
L 1275 0 
L 697 0 
L 697 3053 
L 147 3053 
L 147 3500 
L 697 3500 
L 697 3744 
Q 697 4328 969 4595 
Q 1241 4863 1831 4863 
L 2375 4863 
z
" transform="scale(0.015625)"/>
      </defs>
      <use xlink:href="#DejaVuSans-63"/>
      <use xlink:href="#DejaVuSans-6f" x="54.980469"/>
      <use xlink:href="#DejaVuSans-65" x="116.162109"/>
      <use xlink:href="#DejaVuSans-66" x="177.685547"/>
      <use xlink:href="#DejaVuSans-66" x="212.890625"/>
     </g>
    </g>
   </g>
   <g id="patch_16">
    <path d="M 108 512.64 
L 108 69.12 
" style="fill: none; stroke: #ffffff; stroke-width: 0.8; stroke-linejoin: miter; stroke-linecap: square"/>
   </g>
   <g id="patch_17">
    <path d="M 777.6 512.64 
L 777.6 69.12 
" style="fill: none; stroke: #ffffff; stroke-width: 0.8; stroke-linejoin: miter; stroke-linecap: square"/>
   </g>
   <g id="patch_18">
    <path d="M 108 512.64 
L 777.6 512.64 
" style="fill: none; stroke: #ffffff; stroke-width: 0.8; stroke-linejoin: miter; stroke-linecap: square"/>
   </g>
   <g id="patch_19">
    <path d="M 108 69.12 
L 777.6 69.12 
" style="fill: none; stroke: #ffffff; stroke-width: 0.8; stroke-linejoin: miter; stroke-linecap: square"/>
   </g>
   <g id="text_24">
    <!-- Средний coeff по категориям -->
    <g style="fill: #ffffff" transform="translate(303.425156 63.12)scale(0.18 -0.18)">
     <defs>
      <path id="DejaVuSans-421" d="M 4122 4306 
L 4122 3641 
Q 3803 3938 3442 4084 
Q 3081 4231 2675 4231 
Q 1875 4231 1450 3742 
Q 1025 3253 1025 2328 
Q 1025 1406 1450 917 
Q 1875 428 2675 428 
Q 3081 428 3442 575 
Q 3803 722 4122 1019 
L 4122 359 
Q 3791 134 3420 21 
Q 3050 -91 2638 -91 
Q 1578 -91 968 557 
Q 359 1206 359 2328 
Q 359 3453 968 4101 
Q 1578 4750 2638 4750 
Q 3056 4750 3426 4639 
Q 3797 4528 4122 4306 
z
" transform="scale(0.015625)"/>
      <path id="DejaVuSans-439" d="M 3578 3500 
L 3578 0 
L 3006 0 
L 3006 2809 
L 1319 0 
L 581 0 
L 581 3500 
L 1153 3500 
L 1153 697 
L 2838 3500 
L 3578 3500 
z
M 1102 4833 
L 1471 4833 
Q 1505 4599 1656 4481 
Q 1808 4364 2080 4364 
Q 2349 4364 2499 4480 
Q 2649 4596 2689 4833 
L 3058 4833 
Q 3027 4386 2780 4161 
Q 2533 3936 2080 3936 
Q 1627 3936 1380 4161 
Q 1133 4386 1102 4833 
z
" transform="scale(0.015625)"/>
      <path id="DejaVuSans-20" transform="scale(0.015625)"/>
     </defs>
     <use xlink:href="#DejaVuSans-421"/>
     <use xlink:href="#DejaVuSans-440" x="69.824219"/>
     <use xlink:href="#DejaVuSans-435" x="133.300781"/>
     <use xlink:href="#DejaVuSans-434" x="194.824219"/>
     <use xlink:href="#DejaVuSans-43d" x="263.964844"/>
     <use xlink:href="#DejaVuSans-438" x="329.345703"/>
     <use xlink:href="#DejaVuSans-439" x="394.335938"/>
     <use xlink:href="#DejaVuSans-20" x="459.326172"/>
     <use xlink:href="#DejaVuSans-63" x="491.113281"/>
     <use xlink:href="#DejaVuSans-6f" x="546.09375"/>
     <use xlink:href="#DejaVuSans-65" x="607.275391"/>
     <use xlink:href="#DejaVuSans-66" x="668.798828"/>
     <use xlink:href="#DejaVuSans-66" x="704.003906"/>
     <use xlink:href="#DejaVuSans-20" x="739.208984"/>
     <use xlink:href="#DejaVuSans-43f" x="770.996094"/>
     <use xlink:href="#DejaVuSans-43e" x="836.376953"/>
     <use xlink:href="#DejaVuSans-20" x="897.558594"/>
     <use xlink:href="#DejaVuSans-43a" x="929.345703"/>
     <use xlink:href="#DejaVuSans-430" x="989.746094"/>
     <use xlink:href="#DejaVuSans-442" x="1051.025391"/>
     <use xlink:href="#DejaVuSans-435" x="1109.277344"/>
     <use xlink:href="#DejaVuSans-433" x="1170.800781"/>
     <use xlink:href="#DejaVuSans-43e" x="1223.339844"/>
     <use xlink:href="#DejaVuSans-440" x="1284.521484"/>
     <use xlink:href="#DejaVuSans-438" x="1347.998047"/>
     <use xlink:href="#DejaVuSans-44f" x="1412.988281"/>
     <use xlink:href="#DejaVuSans-43c" x="1473.144531"/>
    </g>
   </g>
  </g>
 </g>
 <defs>
  <clipPath id="p828d436317">
   <rect x="108" y="69.12" width="669.6" height="443.52"/>
  </clipPath>
 </defs>
</svg>
